Oxygen-Heavy.ufo
<glyph name="quotedbl" format="1">
  <advance width="833"/>
  <unicode hex="0022"/>
  <outline>
    <contour>
      <point x="131" y="915" type="line"/>
      <point x="330" y="915" type="line"/>
      <point x="360" y="1444" type="line"/>
      <point x="88" y="1444" type="line"/>
    </contour>
    <contour>
      <point x="515" y="915" type="line"/>
      <point x="712" y="915" type="line"/>
      <point x="744" y="1444" type="line"/>
      <point x="474" y="1444" type="line"/>
    </contour>
  </outline>
</glyph>
<glyph name="dollar" format="1">
  <advance width="1162"/>
  <unicode hex="0024"/>
  <outline>
    <contour>
      <point x="543" y="-224" type="line"/>
      <point x="643" y="-224" type="line"/>
      <point x="643" y="-12" type="line"/>
      <point x="920" y="20"/>
      <point x="1096" y="169"/>
      <point x="1096" y="402" type="curve" smooth="yes"/>
      <point x="1096" y="634"/>
      <point x="1007" y="753"/>
      <point x="717" y="859" type="curve" smooth="yes"/>
      <point x="680" y="872"/>
      <point x="673" y="877"/>
      <point x="643" y="888" type="curve"/>
      <point x="643" y="1205" type="line"/>
      <point x="748" y="1200"/>
      <point x="855" y="1164"/>
      <point x="962" y="1122" type="curve"/>
      <point x="1065" y="1358" type="line"/>
      <point x="926" y="1433"/>
      <point x="798" y="1463"/>
      <point x="643" y="1468" type="curve"/>
      <point x="643" y="1609" type="line"/>
      <point x="543" y="1609" type="line"/>
      <point x="543" y="1467" type="line"/>
      <point x="287" y="1447"/>
      <point x="104" y="1295"/>
      <point x="104" y="1054" type="curve" smooth="yes"/>
      <point x="104" y="842"/>
      <point x="211" y="717"/>
      <point x="371" y="647" type="curve" smooth="yes"/>
      <point x="427" y="625"/>
      <point x="470" y="607"/>
      <point x="543" y="585" type="curve"/>
      <point x="543" y="248" type="line"/>
      <point x="423" y="249"/>
      <point x="279" y="300"/>
      <point x="169" y="365" type="curve"/>
      <point x="94" y="103" type="line"/>
      <point x="242" y="19"/>
      <point x="380" y="-20"/>
      <point x="540" y="-18" type="curve"/>
    </contour>
    <contour>
      <point x="543" y="927" type="line"/>
      <point x="521" y="935"/>
      <point x="523" y="937"/>
      <point x="504" y="944" type="curve" smooth="yes"/>
      <point x="474" y="960"/>
      <point x="451" y="1005"/>
      <point x="451" y="1066" type="curve" smooth="yes"/>
      <point x="459" y="1148"/>
      <point x="491" y="1183"/>
      <point x="543" y="1198" type="curve"/>
    </contour>
    <contour>
      <point x="643" y="260" type="curve"/>
      <point x="643" y="552" type="line"/>
      <point x="652" y="548"/>
      <point x="649" y="548"/>
      <point x="659" y="544" type="curve" smooth="yes"/>
      <point x="700" y="518"/>
      <point x="757" y="477"/>
      <point x="757" y="409" type="curve" smooth="yes"/>
      <point x="757" y="344"/>
      <point x="721" y="286"/>
    </contour>
  </outline>
</glyph>
<glyph name="ampersand" format="1">
  <advance width="1408"/>
  <unicode hex="0026"/>
  <outline>
    <contour>
      <point x="554" y="-23" type="curve" smooth="yes"/>
      <point x="699" y="-23"/>
      <point x="854" y="24"/>
      <point x="994" y="126" type="curve"/>
      <point x="1140" y="-19" type="line"/>
      <point x="1127" y="-22"/>
      <point x="1397" y="40"/>
      <point x="1384" y="35" type="curve"/>
      <point x="1161" y="255" type="line"/>
      <point x="1230" y="330"/>
      <point x="1302" y="437"/>
      <point x="1355" y="530" type="curve"/>
      <point x="1151" y="657" type="line"/>
      <point x="1109" y="582"/>
      <point x="1049" y="489"/>
      <point x="989" y="423" type="curve"/>
      <point x="673" y="774" type="line"/>
      <point x="810" y="846"/>
      <point x="984" y="960"/>
      <point x="984" y="1158" type="curve" smooth="yes"/>
      <point x="984" y="1394"/>
      <point x="761" y="1482"/>
      <point x="582" y="1482" type="curve" smooth="yes"/>
      <point x="401" y="1482"/>
      <point x="204" y="1388"/>
      <point x="204" y="1140" type="curve" smooth="yes"/>
      <point x="204" y="1009"/>
      <point x="293" y="908"/>
      <point x="364" y="825" type="curve"/>
      <point x="204" y="737"/>
      <point x="27" y="631"/>
      <point x="27" y="410" type="curve" smooth="yes"/>
      <point x="27" y="76"/>
      <point x="326" y="-23"/>
    </contour>
    <contour>
      <point x="559" y="192" type="curve" smooth="yes"/>
      <point x="429" y="192"/>
      <point x="294" y="259"/>
      <point x="294" y="440" type="curve" smooth="yes"/>
      <point x="294" y="580"/>
      <point x="390" y="625"/>
      <point x="484" y="684" type="curve"/>
      <point x="447" y="723"/>
      <point x="879" y="248"/>
      <point x="841" y="288" type="curve"/>
      <point x="769" y="227"/>
      <point x="656" y="192"/>
    </contour>
    <contour>
      <point x="549" y="934" type="curve"/>
      <point x="498" y="989"/>
      <point x="448" y="1066"/>
      <point x="448" y="1156" type="curve" smooth="yes"/>
      <point x="448" y="1256"/>
      <point x="508" y="1295"/>
      <point x="591" y="1295" type="curve" smooth="yes"/>
      <point x="674" y="1295"/>
      <point x="729" y="1255"/>
      <point x="729" y="1162" type="curve" smooth="yes"/>
      <point x="729" y="1046"/>
      <point x="629" y="980"/>
    </contour>
  </outline>
</glyph>
<glyph name="quotesingle" format="1">
  <advance width="452"/>
  <unicode hex="0027"/>
  <outline>
    <contour>
      <point x="134" y="898" type="line"/>
      <point x="311" y="898" type="line"/>
      <point x="343" y="1450" type="line"/>
      <point x="91" y="1450" type="line"/>
    </contour>
  </outline>
</glyph>
<glyph name="parenleft" format="1">
  <advance width="677"/>
  <unicode hex="0028"/>
  <outline>
    <contour>
      <point x="374" y="-279" type="curve"/>
      <point x="662" y="-279" type="line"/>
      <point x="589" y="-187"/>
      <point x="387" y="211"/>
      <point x="387" y="597" type="curve" smooth="yes"/>
      <point x="387" y="980"/>
      <point x="588" y="1394"/>
      <point x="664" y="1490" type="curve"/>
      <point x="375" y="1490" type="line"/>
      <point x="208" y="1261"/>
      <point x="86" y="964"/>
      <point x="86" y="597" type="curve" smooth="yes"/>
      <point x="86" y="231"/>
      <point x="205" y="-49"/>
    </contour>
  </outline>
</glyph>
<glyph name="parenright" format="1">
  <advance width="677"/>
  <unicode hex="0029"/>
  <outline>
    <contour>
      <point x="16" y="-279" type="curve"/>
      <point x="304" y="-279" type="line"/>
      <point x="472" y="-51"/>
      <point x="592" y="230"/>
      <point x="592" y="597" type="curve" smooth="yes"/>
      <point x="592" y="962"/>
      <point x="471" y="1260"/>
      <point x="303" y="1490" type="curve"/>
      <point x="15" y="1490" type="line"/>
      <point x="90" y="1394"/>
      <point x="291" y="980"/>
      <point x="291" y="597" type="curve" smooth="yes"/>
      <point x="291" y="210"/>
      <point x="88" y="-187"/>
    </contour>
  </outline>
</glyph>
<glyph name="asterisk" format="1">
  <advance width="1103"/>
  <unicode hex="002A"/>
  <outline>
    <contour>
      <point x="387" y="550" type="line"/>
      <point x="550" y="847" type="line"/>
      <point x="721" y="549" type="line"/>
      <point x="708" y="540"/>
      <point x="966" y="685"/>
      <point x="954" y="676" type="curve"/>
      <point x="974" y="649"/>
      <point x="704" y="978"/>
      <point x="714" y="964" type="curve"/>
      <point x="1042" y="1030" type="line"/>
      <point x="974" y="1262" type="line"/>
      <point x="646" y="1147" type="line"/>
      <point x="679" y="1492" type="line"/>
      <point x="423" y="1492" type="line"/>
      <point x="457" y="1147" type="line"/>
      <point x="133" y="1268" type="line"/>
      <point x="61" y="1037" type="line"/>
      <point x="389" y="964" type="line"/>
      <point x="150" y="676" type="line"/>
    </contour>
  </outline>
</glyph>
<glyph name="comma" format="1">
  <advance width="510"/>
  <unicode hex="002C"/>
  <outline>
    <contour>
      <point x="34" y="-287" type="curve"/>
      <point x="259" y="-287" type="line"/>
      <point x="330" y="-114"/>
      <point x="382" y="35"/>
      <point x="426" y="179" type="curve"/>
      <point x="432" y="230" type="line"/>
      <point x="156" y="230" type="line"/>
      <point x="119" y="57"/>
      <point x="81" y="-103"/>
    </contour>
  </outline>
</glyph>
<glyph name="hyphen" format="1">
  <advance width="680"/>
  <unicode hex="002D"/>
  <outline>
    <contour>
      <point x="60" y="411" type="line"/>
      <point x="620" y="411" type="line"/>
      <point x="620" y="652" type="line"/>
      <point x="60" y="652" type="line"/>
    </contour>
  </outline>
</glyph>
<glyph name="slash" format="1">
  <advance width="947"/>
  <unicode hex="002F"/>
  <outline>
    <contour>
      <point x="54" y="-169" type="line"/>
      <point x="313" y="-169" type="line"/>
      <point x="905" y="1505" type="line"/>
      <point x="640" y="1505" type="line"/>
    </contour>
  </outline>
</glyph>
<glyph name="two" format="1">
  <advance width="1012"/>
  <unicode hex="0032"/>
  <outline>
    <contour>
      <point x="66" y="0" type="line"/>
      <point x="909" y="0" type="line"/>
      <point x="932" y="225" type="line"/>
      <point x="410" y="225" type="line"/>
      <point x="678" y="508" type="line" smooth="yes"/>
      <point x="771" y="602"/>
      <point x="964" y="797"/>
      <point x="964" y="1045" type="curve"/>
      <point x="964" y="1334"/>
      <point x="746" y="1466"/>
      <point x="463" y="1466" type="curve" smooth="yes"/>
      <point x="285" y="1466"/>
      <point x="143" y="1431"/>
      <point x="29" y="1333" type="curve"/>
      <point x="116" y="1104" type="line"/>
      <point x="182" y="1156"/>
      <point x="315" y="1223"/>
      <point x="446" y="1223" type="curve" smooth="yes"/>
      <point x="554" y="1223"/>
      <point x="645" y="1152"/>
      <point x="645" y="1050" type="curve"/>
      <point x="645" y="906"/>
      <point x="560" y="804"/>
      <point x="498" y="741" type="curve" smooth="yes"/>
      <point x="71" y="250" type="line"/>
    </contour>
  </outline>
</glyph>
<glyph name="nine" format="1">
  <advance width="1249"/>
  <unicode hex="0039"/>
  <outline>
    <contour>
      <point x="238" y="0" type="line"/>
      <point x="623" y="0" type="line"/>
      <point x="623" y="0"/>
      <point x="1070" y="613"/>
      <point x="1046" y="580" type="curve"/>
      <point x="1110" y="670"/>
      <point x="1215" y="807"/>
      <point x="1215" y="987" type="curve" smooth="yes"/>
      <point x="1215" y="1295"/>
      <point x="958" y="1466"/>
      <point x="632" y="1466" type="curve" smooth="yes"/>
      <point x="315" y="1466"/>
      <point x="79" y="1300"/>
      <point x="79" y="998" type="curve" smooth="yes"/>
      <point x="79" y="723"/>
      <point x="268" y="526"/>
      <point x="576" y="526" type="curve" smooth="yes"/>
      <point x="601" y="526"/>
      <point x="598" y="524"/>
      <point x="625" y="524" type="curve"/>
    </contour>
    <contour>
      <point x="646" y="733" type="curve" smooth="yes"/>
      <point x="465" y="733"/>
      <point x="391" y="837"/>
      <point x="391" y="994" type="curve" smooth="yes"/>
      <point x="391" y="1147"/>
      <point x="487" y="1236"/>
      <point x="649" y="1236" type="curve" smooth="yes"/>
      <point x="804" y="1236"/>
      <point x="892" y="1150"/>
      <point x="892" y="999" type="curve" smooth="yes"/>
      <point x="892" y="840"/>
      <point x="823" y="733"/>
    </contour>
  </outline>
</glyph>
<glyph name="less" format="1">
  <advance width="1210"/>
  <unicode hex="003C"/>
  <outline>
    <contour>
      <point x="1095" y="229" type="line"/>
      <point x="1095" y="465" type="line"/>
      <point x="437" y="748" type="line"/>
      <point x="1094" y="1051" type="line"/>
      <point x="1094" y="1289" type="line"/>
      <point x="123" y="813" type="line"/>
      <point x="123" y="671" type="line"/>
    </contour>
  </outline>
</glyph>
<glyph name="equal" format="1">
  <advance width="1184"/>
  <unicode hex="003D"/>
  <outline>
    <contour>
      <point x="67" y="343" type="line"/>
      <point x="1121" y="343" type="line"/>
      <point x="1121" y="568" type="line"/>
      <point x="67" y="568" type="line"/>
    </contour>
    <contour>
      <point x="67" y="724" type="line"/>
      <point x="1120" y="724" type="line"/>
      <point x="1120" y="949" type="line"/>
      <point x="67" y="949" type="line"/>
    </contour>
  </outline>
</glyph>
<glyph name="greater" format="1">
  <advance width="1210"/>
  <unicode hex="003E"/>
  <outline>
    <contour>
      <point x="121" y="227" type="line"/>
      <point x="1094" y="672" type="line"/>
      <point x="1094" y="814" type="line"/>
      <point x="121" y="1288" type="line"/>
      <point x="121" y="1049" type="line"/>
      <point x="779" y="748" type="line"/>
      <point x="121" y="464" type="line"/>
    </contour>
  </outline>
</glyph>
<glyph name="question" format="1">
  <advance width="901"/>
  <unicode hex="003F"/>
  <outline>
    <contour>
      <point x="327" y="456" type="curve"/>
      <point x="454" y="456" type="line"/>
      <point x="614" y="744"/>
      <point x="848" y="893"/>
      <point x="848" y="1113" type="curve" smooth="yes"/>
      <point x="848" y="1363"/>
      <point x="608" y="1467"/>
      <point x="442" y="1467" type="curve" smooth="yes"/>
      <point x="241" y="1467"/>
      <point x="146" y="1418"/>
      <point x="37" y="1355" type="curve"/>
      <point x="123" y="1168" type="line"/>
      <point x="187" y="1208"/>
      <point x="268" y="1256"/>
      <point x="413" y="1256" type="curve" smooth="yes"/>
      <point x="541" y="1256"/>
      <point x="609" y="1171"/>
      <point x="608" y="1065" type="curve"/>
      <point x="608" y="885"/>
      <point x="388" y="779"/>
    </contour>
    <contour>
      <point x="376" y="-22" type="curve" smooth="yes"/>
      <point x="462" y="-22"/>
      <point x="542" y="50"/>
      <point x="542" y="144" type="curve" smooth="yes"/>
      <point x="542" y="237"/>
      <point x="462" y="313"/>
      <point x="376" y="313" type="curve" smooth="yes"/>
      <point x="288" y="313"/>
      <point x="207" y="237"/>
      <point x="207" y="144" type="curve" smooth="yes"/>
      <point x="207" y="50"/>
      <point x="288" y="-22"/>
    </contour>
  </outline>
</glyph>
<glyph name="A" format="1">
  <advance width="1397"/>
  <unicode hex="0041"/>
  <outline>
    <contour>
      <point x="-7" y="0" type="line"/>
      <point x="348" y="0" type="line"/>
      <point x="471" y="378" type="line"/>
      <point x="933" y="378" type="line"/>
      <point x="1059" y="0" type="line"/>
      <point x="1404" y="0" type="line"/>
      <point x="886" y="1455" type="line"/>
      <point x="512" y="1455" type="line"/>
    </contour>
    <contour>
      <point x="546" y="618" type="line"/>
      <point x="546" y="618"/>
      <point x="707" y="1168"/>
      <point x="702" y="1152" type="curve"/>
      <point x="696" y="1171"/>
      <point x="855" y="618"/>
      <point x="855" y="618" type="curve"/>
    </contour>
    <contour>
      <point x="699" y="1455" type="move" name="top"/>
    </contour>
    <contour>
      <point x="1257" y="10" type="move" name="ogonek"/>
    </contour>
  </outline>
</glyph>
<glyph name="B" format="1">
  <advance width="1364"/>
  <unicode hex="0042"/>
  <outline>
    <contour>
      <point x="147" y="0" type="line"/>
      <point x="708" y="0" type="line" smooth="yes"/>
      <point x="1039" y="0"/>
      <point x="1279" y="135"/>
      <point x="1279" y="427" type="curve" smooth="yes"/>
      <point x="1279" y="609"/>
      <point x="1183" y="733"/>
      <point x="1015" y="782" type="curve"/>
      <point x="1180" y="835"/>
      <point x="1214" y="978"/>
      <point x="1214" y="1085" type="curve" smooth="yes"/>
      <point x="1214" y="1367"/>
      <point x="1002" y="1455"/>
      <point x="626" y="1455" type="curve" smooth="yes"/>
      <point x="147" y="1455" type="line"/>
    </contour>
    <contour>
      <point x="483" y="232" type="line"/>
      <point x="483" y="649" type="line"/>
      <point x="685" y="649" type="line" smooth="yes"/>
      <point x="858" y="649"/>
      <point x="938" y="585"/>
      <point x="938" y="448" type="curve" smooth="yes"/>
      <point x="938" y="300"/>
      <point x="845" y="232"/>
      <point x="669" y="232" type="curve" smooth="yes"/>
    </contour>
    <contour>
      <point x="483" y="872" type="line"/>
      <point x="483" y="1221" type="line"/>
      <point x="617" y="1221" type="line" smooth="yes"/>
      <point x="806" y="1221"/>
      <point x="898" y="1188"/>
      <point x="898" y="1049" type="curve" smooth="yes"/>
      <point x="898" y="940"/>
      <point x="823" y="872"/>
      <point x="659" y="872" type="curve" smooth="yes"/>
    </contour>
  </outline>
</glyph>
<glyph name="C" format="1">
  <advance width="1309"/>
  <unicode hex="0043"/>
  <outline>
    <contour>
      <point x="790" y="-20" type="curve" smooth="yes"/>
      <point x="931" y="-20"/>
      <point x="1076" y="-1"/>
      <point x="1223" y="83" type="curve"/>
      <point x="1182" y="339" type="line"/>
      <point x="1054" y="272"/>
      <point x="927" y="245"/>
      <point x="811" y="245" type="curve" smooth="yes"/>
      <point x="587" y="245"/>
      <point x="435" y="395"/>
      <point x="435" y="727" type="curve" smooth="yes"/>
      <point x="435" y="1032"/>
      <point x="590" y="1210"/>
      <point x="813" y="1210" type="curve" smooth="yes"/>
      <point x="958" y="1210"/>
      <point x="1055" y="1162"/>
      <point x="1153" y="1102" type="curve"/>
      <point x="1249" y="1349" type="line"/>
      <point x="1105" y="1447"/>
      <point x="944" y="1474"/>
      <point x="805" y="1474" type="curve" smooth="yes"/>
      <point x="397" y="1474"/>
      <point x="92" y="1194"/>
      <point x="92" y="735" type="curve" smooth="yes"/>
      <point x="92" y="242"/>
      <point x="384" y="-20"/>
    </contour>
    <contour>
      <point x="655" y="1455" type="move" name="top"/>
    </contour>
    <contour>
      <point x="655" y="0" type="move" name="bottom"/>
    </contour>
  </outline>
</glyph>
<glyph name="D" format="1">
  <advance width="1522"/>
  <unicode hex="0044"/>
  <outline>
    <contour>
      <point x="486" y="261" type="line"/>
      <point x="486" y="1193" type="line"/>
      <point x="605" y="1193" type="line" smooth="yes"/>
      <point x="936" y="1193"/>
      <point x="1091" y="1057"/>
      <point x="1091" y="730" type="curve" smooth="yes"/>
      <point x="1091" y="428"/>
      <point x="934" y="261"/>
      <point x="634" y="261" type="curve" smooth="yes"/>
    </contour>
    <contour>
      <point x="149" y="0" type="line"/>
      <point x="604" y="0" type="line" smooth="yes"/>
      <point x="1116" y="0"/>
      <point x="1431" y="263"/>
      <point x="1431" y="736" type="curve" smooth="yes"/>
      <point x="1431" y="1221"/>
      <point x="1104" y="1455"/>
      <point x="583" y="1455" type="curve" smooth="yes"/>
      <point x="149" y="1455" type="line"/>
    </contour>
    <contour>
      <point x="761" y="1455" type="move" name="top"/>
    </contour>
    <contour>
      <point x="761" y="728" type="move" name="center"/>
    </contour>
  </outline>
</glyph>
<glyph name="G" format="1">
  <advance width="1470"/>
  <unicode hex="0047"/>
  <outline>
    <contour>
      <point x="808" y="-20" type="curve" smooth="yes"/>
      <point x="1004" y="-20"/>
      <point x="1163" y="25"/>
      <point x="1334" y="89" type="curve"/>
      <point x="1334" y="816" type="line"/>
      <point x="737" y="816" type="line"/>
      <point x="739" y="563" type="line"/>
      <point x="1018" y="563" type="line"/>
      <point x="1018" y="277" type="line"/>
      <point x="955" y="254"/>
      <point x="888" y="245"/>
      <point x="806" y="245" type="curve" smooth="yes"/>
      <point x="560" y="245"/>
      <point x="435" y="437"/>
      <point x="435" y="727" type="curve" smooth="yes"/>
      <point x="436" y="1042"/>
      <point x="609" y="1210"/>
      <point x="859" y="1210" type="curve" smooth="yes"/>
      <point x="995" y="1210"/>
      <point x="1111" y="1171"/>
      <point x="1215" y="1118" type="curve"/>
      <point x="1317" y="1359" type="line"/>
      <point x="1182" y="1441"/>
      <point x="1027" y="1474"/>
      <point x="852" y="1474" type="curve" smooth="yes"/>
      <point x="374" y="1474"/>
      <point x="92" y="1178"/>
      <point x="92" y="732" type="curve" smooth="yes"/>
      <point x="92" y="251"/>
      <point x="365" y="-20"/>
    </contour>
    <contour>
      <point x="735" y="1455" type="move" name="top"/>
    </contour>
    <contour>
      <point x="735" y="0" type="move" name="bottom"/>
    </contour>
  </outline>
</glyph>
<glyph name="H" format="1">
  <advance width="1541"/>
  <unicode hex="0048"/>
  <outline>
    <contour>
      <point x="147" y="0" type="line"/>
      <point x="483" y="0" type="line"/>
      <point x="483" y="626" type="line"/>
      <point x="1057" y="626" type="line"/>
      <point x="1057" y="0" type="line"/>
      <point x="1394" y="0" type="line"/>
      <point x="1394" y="1455" type="line"/>
      <point x="1057" y="1455" type="line"/>
      <point x="1057" y="880" type="line"/>
      <point x="483" y="880" type="line"/>
      <point x="483" y="1455" type="line"/>
      <point x="147" y="1455" type="line"/>
    </contour>
    <contour>
      <point x="771" y="1455" type="move" name="top"/>
    </contour>
    <contour>
      <point x="771" y="728" type="move" name="center"/>
    </contour>
  </outline>
</glyph>
<glyph name="K" format="1">
  <advance width="1414"/>
  <unicode hex="004B"/>
  <outline>
    <contour>
      <point x="147" y="0" type="line"/>
      <point x="483" y="0" type="line"/>
      <point x="483" y="547" type="line"/>
      <point x="581" y="624" type="line"/>
      <point x="999" y="0" type="line"/>
      <point x="1389" y="0" type="line"/>
      <point x="838" y="802" type="line"/>
      <point x="1360" y="1455" type="line"/>
      <point x="971" y="1455" type="line"/>
      <point x="755" y="1190"/>
      <point x="691" y="1113"/>
      <point x="483" y="839" type="curve"/>
      <point x="483" y="1455" type="line"/>
      <point x="147" y="1455" type="line"/>
    </contour>
    <contour>
      <point x="707" y="1455" type="move" name="top"/>
    </contour>
    <contour>
      <point x="707" y="0" type="move" name="bottom"/>
    </contour>
  </outline>
</glyph>
<glyph name="L" format="1">
  <advance width="1105"/>
  <unicode hex="004C"/>
  <outline>
    <contour>
      <point x="147" y="0" type="line"/>
      <point x="1062" y="0" type="line"/>
      <point x="1070" y="258" type="line"/>
      <point x="483" y="258" type="line"/>
      <point x="483" y="1455" type="line"/>
      <point x="147" y="1455" type="line"/>
    </contour>
    <contour>
      <point x="553" y="1455" type="move" name="top"/>
    </contour>
    <contour>
      <point x="553" y="0" type="move" name="bottom"/>
    </contour>
  </outline>
</glyph>
<glyph name="M" format="1">
  <advance width="1857"/>
  <unicode hex="004D"/>
  <outline>
    <contour>
      <point x="146" y="0" type="line"/>
      <point x="445" y="0" type="line"/>
      <point x="445" y="610" type="line"/>
      <point x="435" y="1074" type="line"/>
      <point x="472" y="958" type="line"/>
      <point x="781" y="106" type="line"/>
      <point x="1055" y="106" type="line"/>
      <point x="1377" y="953" type="line"/>
      <point x="1414" y="1069" type="line"/>
      <point x="1405" y="613" type="line"/>
      <point x="1405" y="0" type="line"/>
      <point x="1711" y="0" type="line"/>
      <point x="1711" y="1455" type="line"/>
      <point x="1329" y="1455" type="line"/>
      <point x="925" y="477" type="line"/>
      <point x="530" y="1455" type="line"/>
      <point x="146" y="1455" type="line"/>
    </contour>
  </outline>
</glyph>
<glyph name="N" format="1">
  <advance width="1580"/>
  <unicode hex="004E"/>
  <outline>
    <contour>
      <point x="147" y="0" type="line"/>
      <point x="450" y="0" type="line"/>
      <point x="450" y="658" type="line" smooth="yes"/>
      <point x="450" y="628"/>
      <point x="439" y="1058"/>
      <point x="441" y="1026" type="curve"/>
      <point x="488" y="940" type="line"/>
      <point x="1077" y="0" type="line"/>
      <point x="1433" y="0" type="line"/>
      <point x="1433" y="1455" type="line"/>
      <point x="1129" y="1455" type="line"/>
      <point x="1129" y="796" type="line" smooth="yes"/>
      <point x="1129" y="809"/>
      <point x="1136" y="450"/>
      <point x="1136" y="450" type="curve"/>
      <point x="1086" y="526"/>
      <point x="1049" y="585"/>
      <point x="999" y="662" type="curve"/>
      <point x="767" y="1022"/>
      <point x="730" y="1095"/>
      <point x="498" y="1455" type="curve"/>
      <point x="147" y="1455" type="line"/>
    </contour>
    <contour>
      <point x="790" y="1455" type="move" name="top"/>
    </contour>
    <contour>
      <point x="790" y="0" type="move" name="bottom"/>
    </contour>
  </outline>
</glyph>
<glyph name="O" format="1">
  <advance width="1626"/>
  <unicode hex="004F"/>
  <outline>
    <contour>
      <point x="814" y="247" type="curve" smooth="yes"/>
      <point x="564" y="247"/>
      <point x="441" y="422"/>
      <point x="441" y="724" type="curve" smooth="yes"/>
      <point x="441" y="1023"/>
      <point x="562" y="1211"/>
      <point x="815" y="1211" type="curve" smooth="yes"/>
      <point x="1067" y="1211"/>
      <point x="1188" y="1025"/>
      <point x="1188" y="724" type="curve" smooth="yes"/>
      <point x="1188" y="420"/>
      <point x="1064" y="247"/>
    </contour>
    <contour>
      <point x="813" y="-20" type="curve" smooth="yes"/>
      <point x="1244" y="-20"/>
      <point x="1535" y="244"/>
      <point x="1535" y="728" type="curve" smooth="yes"/>
      <point x="1535" y="1210"/>
      <point x="1249" y="1474"/>
      <point x="814" y="1474" type="curve" smooth="yes"/>
      <point x="382" y="1474"/>
      <point x="91" y="1213"/>
      <point x="91" y="729" type="curve" smooth="yes"/>
      <point x="91" y="246"/>
      <point x="383" y="-20"/>
    </contour>
    <contour>
      <point x="813" y="1455" type="move" name="top"/>
    </contour>
  </outline>
</glyph>
<glyph name="P" format="1">
  <advance width="1303"/>
  <unicode hex="0050"/>
  <outline>
    <contour>
      <point x="154" y="0" type="line"/>
      <point x="482" y="0" type="line"/>
      <point x="482" y="514" type="line"/>
      <point x="537" y="510"/>
      <point x="703" y="510"/>
      <point x="687" y="510" type="curve" smooth="yes"/>
      <point x="1120" y="510"/>
      <point x="1248" y="731"/>
      <point x="1248" y="987" type="curve" smooth="yes"/>
      <point x="1248" y="1308"/>
      <point x="1018" y="1451"/>
      <point x="647" y="1451" type="curve" smooth="yes"/>
      <point x="154" y="1451" type="line"/>
    </contour>
    <contour>
      <point x="627" y="734" type="curve" smooth="yes"/>
      <point x="644" y="734"/>
      <point x="501" y="734"/>
      <point x="482" y="736" type="curve"/>
      <point x="482" y="1221" type="line"/>
      <point x="647" y="1221" type="line" smooth="yes"/>
      <point x="835" y="1221"/>
      <point x="931" y="1127"/>
      <point x="931" y="974" type="curve" smooth="yes"/>
      <point x="931" y="859"/>
      <point x="881" y="734"/>
    </contour>
  </outline>
</glyph>
<glyph name="Q" format="1">
  <advance width="1626"/>
  <unicode hex="0051"/>
  <outline>
    <contour>
      <point x="1242" y="-483" type="curve"/>
      <point x="1454" y="-311" type="line"/>
      <point x="1309" y="-184"/>
      <point x="1239" y="-75"/>
      <point x="1161" y="51" type="curve"/>
      <point x="1392" y="159"/>
      <point x="1535" y="389"/>
      <point x="1535" y="728" type="curve" smooth="yes"/>
      <point x="1535" y="1210"/>
      <point x="1249" y="1474"/>
      <point x="814" y="1474" type="curve" smooth="yes"/>
      <point x="382" y="1474"/>
      <point x="91" y="1213"/>
      <point x="91" y="729" type="curve" smooth="yes"/>
      <point x="91" y="246"/>
      <point x="383" y="-20"/>
      <point x="813" y="-20" type="curve" smooth="yes"/>
      <point x="829" y="-20"/>
      <point x="846" y="-19"/>
      <point x="862" y="-19" type="curve"/>
      <point x="941" y="-157"/>
      <point x="1073" y="-367"/>
    </contour>
    <contour>
      <point x="814" y="247" type="curve" smooth="yes"/>
      <point x="564" y="247"/>
      <point x="441" y="422"/>
      <point x="441" y="724" type="curve" smooth="yes"/>
      <point x="441" y="1023"/>
      <point x="562" y="1211"/>
      <point x="815" y="1211" type="curve" smooth="yes"/>
      <point x="1067" y="1211"/>
      <point x="1188" y="1025"/>
      <point x="1188" y="724" type="curve" smooth="yes"/>
      <point x="1188" y="420"/>
      <point x="1064" y="247"/>
    </contour>
  </outline>
</glyph>
<glyph name="R" format="1">
  <advance width="1430"/>
  <unicode hex="0052"/>
  <outline>
    <contour>
      <point x="153" y="0" type="line"/>
      <point x="483" y="0" type="line"/>
      <point x="483" y="588" type="line"/>
      <point x="483" y="588"/>
      <point x="689" y="590"/>
      <point x="684" y="590" type="curve" smooth="yes"/>
      <point x="729" y="590"/>
      <point x="748" y="588"/>
      <point x="757" y="585" type="curve"/>
      <point x="749" y="598"/>
      <point x="849" y="405"/>
      <point x="886" y="329" type="curve" smooth="yes"/>
      <point x="1035" y="0" type="line"/>
      <point x="1395" y="0" type="line"/>
      <point x="1193" y="406" type="line" smooth="yes"/>
      <point x="1144" y="502"/>
      <point x="1123" y="559"/>
      <point x="1044" y="647" type="curve"/>
      <point x="1206" y="711"/>
      <point x="1297" y="828"/>
      <point x="1297" y="1034" type="curve" smooth="yes"/>
      <point x="1297" y="1370"/>
      <point x="1082" y="1451"/>
      <point x="743" y="1451" type="curve" smooth="yes"/>
      <point x="153" y="1451" type="line"/>
    </contour>
    <contour>
      <point x="735" y="816" type="curve" smooth="yes"/>
      <point x="765" y="816"/>
      <point x="452" y="815"/>
      <point x="483" y="815" type="curve"/>
      <point x="483" y="1219" type="line"/>
      <point x="736" y="1219" type="line" smooth="yes"/>
      <point x="897" y="1219"/>
      <point x="994" y="1164"/>
      <point x="994" y="1028" type="curve" smooth="yes"/>
      <point x="994" y="875"/>
      <point x="909" y="816"/>
    </contour>
    <contour>
      <point x="715" y="1455" type="move" name="top"/>
    </contour>
    <contour>
      <point x="715" y="0" type="move" name="bottom"/>
    </contour>
  </outline>
</glyph>
<glyph name="W" format="1">
  <advance width="2077"/>
  <unicode hex="0057"/>
  <outline>
    <contour>
      <point x="382" y="0" type="line"/>
      <point x="723" y="0" type="line"/>
      <point x="1042" y="959" type="line"/>
      <point x="1323" y="0" type="line"/>
      <point x="1666" y="0" type="line"/>
      <point x="2048" y="1455" type="line"/>
      <point x="1718" y="1455" type="line"/>
      <point x="1482" y="399" type="line"/>
      <point x="1189" y="1462" type="line"/>
      <point x="888" y="1462" type="line"/>
      <point x="576" y="405" type="line"/>
      <point x="346" y="1455" type="line"/>
      <point x="16" y="1455" type="line"/>
    </contour>
    <contour>
      <point x="1039" y="1455" type="move" name="top"/>
    </contour>
  </outline>
</glyph>
<glyph name="Z" format="1">
  <advance width="1225"/>
  <unicode hex="005A"/>
  <outline>
    <contour>
      <point x="46" y="0" type="line"/>
      <point x="1190" y="0" type="line"/>
      <point x="1188" y="258" type="line"/>
      <point x="458" y="258" type="line"/>
      <point x="1184" y="1214" type="line"/>
      <point x="1184" y="1455" type="line"/>
      <point x="71" y="1455" type="line"/>
      <point x="71" y="1198" type="line"/>
      <point x="798" y="1198" type="line"/>
      <point x="46" y="200" type="line"/>
    </contour>
    <contour>
      <point x="613" y="1455" type="move" name="top"/>
    </contour>
  </outline>
</glyph>
<glyph name="bracketleft" format="1">
  <advance width="634"/>
  <unicode hex="005B"/>
  <outline>
    <contour>
      <point x="129" y="-248" type="line"/>
      <point x="601" y="-248" type="line"/>
      <point x="601" y="-35" type="line"/>
      <point x="435" y="-35" type="line"/>
      <point x="435" y="1311" type="line"/>
      <point x="601" y="1311" type="line"/>
      <point x="601" y="1523" type="line"/>
      <point x="129" y="1523" type="line"/>
    </contour>
  </outline>
</glyph>
<glyph name="bracketright" format="1">
  <advance width="634"/>
  <unicode hex="005D"/>
  <outline>
    <contour>
      <point x="33" y="-248" type="line"/>
      <point x="504" y="-248" type="line"/>
      <point x="504" y="1523" type="line"/>
      <point x="33" y="1523" type="line"/>
      <point x="33" y="1311" type="line"/>
      <point x="198" y="1311" type="line"/>
      <point x="198" y="-35" type="line"/>
      <point x="33" y="-35" type="line"/>
    </contour>
  </outline>
</glyph>
<glyph name="c" format="1">
  <advance width="1034"/>
  <unicode hex="0063"/>
  <outline>
    <contour>
      <point x="618" y="-19" type="curve" smooth="yes"/>
      <point x="775" y="-19"/>
      <point x="856" y="7"/>
      <point x="959" y="71" type="curve"/>
      <point x="931" y="314" type="line"/>
      <point x="850" y="256"/>
      <point x="758" y="219"/>
      <point x="645" y="219" type="curve" smooth="yes"/>
      <point x="487" y="219"/>
      <point x="394" y="322"/>
      <point x="394" y="562" type="curve" smooth="yes"/>
      <point x="394" y="798"/>
      <point x="494" y="893"/>
      <point x="642" y="893" type="curve" smooth="yes"/>
      <point x="736" y="893"/>
      <point x="828" y="852"/>
      <point x="898" y="818" type="curve"/>
      <point x="971" y="1042" type="line"/>
      <point x="869" y="1102"/>
      <point x="765" y="1130"/>
      <point x="621" y="1130" type="curve" smooth="yes"/>
      <point x="318" y="1130"/>
      <point x="73" y="959"/>
      <point x="73" y="566" type="curve" smooth="yes"/>
      <point x="73" y="160"/>
      <point x="283" y="-19"/>
    </contour>
    <contour>
      <point x="517" y="1098" type="move" name="top"/>
    </contour>
    <contour>
      <point x="517" y="0" type="move" name="bottom"/>
    </contour>
  </outline>
</glyph>
<glyph name="e" format="1">
  <advance width="1189"/>
  <unicode hex="0065"/>
  <outline>
    <contour>
      <point x="663" y="-19" type="curve" smooth="yes"/>
      <point x="846" y="-19"/>
      <point x="964" y="20"/>
      <point x="1064" y="83" type="curve"/>
      <point x="1021" y="302" type="line"/>
      <point x="923" y="244"/>
      <point x="811" y="207"/>
      <point x="677" y="207" type="curve" smooth="yes"/>
      <point x="503" y="207"/>
      <point x="404" y="306"/>
      <point x="398" y="481" type="curve"/>
      <point x="1114" y="481" type="line"/>
      <point x="1114" y="523"/>
      <point x="1115" y="566"/>
      <point x="1115" y="607" type="curve" smooth="yes"/>
      <point x="1115" y="911"/>
      <point x="948" y="1130"/>
      <point x="614" y="1130" type="curve"/>
      <point x="271" y="1131"/>
      <point x="73" y="910"/>
      <point x="73" y="558" type="curve" smooth="yes"/>
      <point x="73" y="197"/>
      <point x="285" y="-19"/>
    </contour>
    <contour>
      <point x="403" y="672" type="line"/>
      <point x="414" y="854"/>
      <point x="519" y="910"/>
      <point x="617" y="910" type="curve" smooth="yes"/>
      <point x="743" y="910"/>
      <point x="817" y="825"/>
      <point x="818" y="672" type="curve"/>
    </contour>
    <contour>
      <point x="595" y="1098" type="move" name="top"/>
    </contour>
    <contour>
      <point x="595" y="0" type="move" name="bottom"/>
    </contour>
    <contour>
      <point x="1070" y="10" type="move" name="ogonek"/>
    </contour>
  </outline>
</glyph>
<glyph name="f" format="1">
  <advance width="808"/>
  <unicode hex="0066"/>
  <outline>
    <contour>
      <point x="197" y="0" type="line"/>
      <point x="523" y="0" type="line"/>
      <point x="523" y="893" type="line"/>
      <point x="776" y="893" type="line"/>
      <point x="776" y="1101" type="line"/>
      <point x="523" y="1101" type="line"/>
      <point x="523" y="1191" type="line" smooth="yes"/>
      <point x="523" y="1271"/>
      <point x="566" y="1305"/>
      <point x="660" y="1305" type="curve" smooth="yes"/>
      <point x="698" y="1305"/>
      <point x="742" y="1300"/>
      <point x="785" y="1294" type="curve"/>
      <point x="816" y="1533" type="line"/>
      <point x="744" y="1546"/>
      <point x="664" y="1554"/>
      <point x="586" y="1554" type="curve" smooth="yes"/>
      <point x="280" y="1554"/>
      <point x="197" y="1413"/>
      <point x="197" y="1169" type="curve"/>
      <point x="197" y="1101" type="line"/>
      <point x="44" y="1077" type="line"/>
      <point x="25" y="893" type="line"/>
      <point x="197" y="893" type="line"/>
    </contour>
  </outline>
</glyph>
<glyph name="h" format="1">
  <advance width="1301"/>
  <unicode hex="0068"/>
  <outline>
    <contour>
      <point x="126" y="0" type="line"/>
      <point x="451" y="0" type="line"/>
      <point x="451" y="491" type="line" smooth="yes"/>
      <point x="451" y="610"/>
      <point x="462" y="705"/>
      <point x="485" y="781" type="curve"/>
      <point x="536" y="844"/>
      <point x="612" y="894"/>
      <point x="699" y="894" type="curve" smooth="yes"/>
      <point x="813" y="894"/>
      <point x="856" y="819"/>
      <point x="856" y="669" type="curve" smooth="yes"/>
      <point x="856" y="0" type="line"/>
      <point x="1182" y="0" type="line"/>
      <point x="1182" y="700" type="line" smooth="yes"/>
      <point x="1182" y="1013"/>
      <point x="1012" y="1130"/>
      <point x="781" y="1130" type="curve" smooth="yes"/>
      <point x="595" y="1130"/>
      <point x="495" y="1043"/>
      <point x="444" y="986" type="curve"/>
      <point x="443" y="976"/>
      <point x="451" y="1251"/>
      <point x="451" y="1282" type="curve" smooth="yes"/>
      <point x="451" y="1513" type="line"/>
      <point x="126" y="1492" type="line"/>
    </contour>
    <contour>
      <point x="651" y="1098" type="move" name="top"/>
    </contour>
    <contour>
      <point x="651" y="549" type="move" name="center"/>
    </contour>
  </outline>
</glyph>
<glyph name="k" format="1">
  <advance width="1261"/>
  <unicode hex="006B"/>
  <outline>
    <contour>
      <point x="125" y="0" type="line"/>
      <point x="451" y="0" type="line"/>
      <point x="451" y="398" type="line"/>
      <point x="551" y="471" type="line"/>
      <point x="887" y="0" type="line"/>
      <point x="1277" y="0" type="line"/>
      <point x="800" y="629" type="line"/>
      <point x="1250" y="1101" type="line"/>
      <point x="871" y="1101" type="line"/>
      <point x="745" y="966"/>
      <point x="605" y="833"/>
      <point x="486" y="683" type="curve" smooth="yes"/>
      <point x="489" y="687"/>
      <point x="438" y="639"/>
      <point x="441" y="642" type="curve"/>
      <point x="451" y="920" type="line"/>
      <point x="451" y="1513" type="line"/>
      <point x="125" y="1492" type="line"/>
    </contour>
    <contour>
      <point x="631" y="0" type="move" name="bottom"/>
    </contour>
  </outline>
</glyph>
<glyph name="m" format="1">
  <advance width="1959"/>
  <unicode hex="006D"/>
  <outline>
    <contour>
      <point x="125" y="0" type="curve"/>
      <point x="451" y="0" type="line"/>
      <point x="451" y="497" type="line" smooth="yes"/>
      <point x="451" y="616"/>
      <point x="461" y="713"/>
      <point x="482" y="789" type="curve"/>
      <point x="523" y="841"/>
      <point x="579" y="893"/>
      <point x="666" y="893" type="curve" smooth="yes"/>
      <point x="784" y="893"/>
      <point x="820" y="817"/>
      <point x="820" y="668" type="curve" smooth="yes"/>
      <point x="820" y="0" type="line"/>
      <point x="1146" y="0" type="line"/>
      <point x="1146" y="673" type="line" smooth="yes"/>
      <point x="1156" y="726"/>
      <point x="1175" y="776"/>
      <point x="1204" y="815" type="curve"/>
      <point x="1242" y="862"/>
      <point x="1294" y="895"/>
      <point x="1371" y="895" type="curve" smooth="yes"/>
      <point x="1476" y="895"/>
      <point x="1515" y="836"/>
      <point x="1515" y="660" type="curve" smooth="yes"/>
      <point x="1515" y="0" type="line"/>
      <point x="1841" y="0" type="line"/>
      <point x="1841" y="700" type="line" smooth="yes"/>
      <point x="1841" y="977"/>
      <point x="1730" y="1130"/>
      <point x="1468" y="1130" type="curve" smooth="yes"/>
      <point x="1315" y="1130"/>
      <point x="1187" y="1066"/>
      <point x="1108" y="965" type="curve"/>
      <point x="1071" y="1036"/>
      <point x="973" y="1130"/>
      <point x="794" y="1130" type="curve" smooth="yes"/>
      <point x="548" y="1130"/>
      <point x="472" y="1025"/>
      <point x="422" y="971" type="curve"/>
      <point x="386" y="1101" type="line"/>
      <point x="126" y="1101" type="line"/>
      <point x="126" y="1118"/>
      <point x="125" y="0"/>
    </contour>
  </outline>
</glyph>
<glyph name="n" format="1">
  <advance width="1300"/>
  <unicode hex="006E"/>
  <outline>
    <contour>
      <point x="126" y="0" type="line"/>
      <point x="451" y="0" type="line"/>
      <point x="451" y="491" type="line" smooth="yes"/>
      <point x="451" y="612"/>
      <point x="453" y="711"/>
      <point x="476" y="789" type="curve"/>
      <point x="521" y="849"/>
      <point x="611" y="895"/>
      <point x="688" y="895" type="curve" smooth="yes"/>
      <point x="831" y="895"/>
      <point x="857" y="786"/>
      <point x="856" y="633" type="curve" smooth="yes"/>
      <point x="856" y="645"/>
      <point x="856" y="0"/>
      <point x="856" y="0" type="curve"/>
      <point x="1182" y="0" type="line"/>
      <point x="1182" y="701" type="line" smooth="yes"/>
      <point x="1182" y="963"/>
      <point x="1056" y="1130"/>
      <point x="792" y="1130" type="curve" smooth="yes"/>
      <point x="621" y="1130"/>
      <point x="519" y="1058"/>
      <point x="419" y="973" type="curve"/>
      <point x="384" y="1101" type="line"/>
      <point x="126" y="1101" type="line"/>
    </contour>
    <contour>
      <point x="650" y="1098" type="move" name="top"/>
    </contour>
    <contour>
      <point x="650" y="0" type="move" name="bottom"/>
    </contour>
  </outline>
</glyph>
<glyph name="q" format="1">
  <advance width="1291"/>
  <unicode hex="0071"/>
  <outline>
    <contour>
      <point x="838" y="-445" type="line"/>
      <point x="1165" y="-429" type="line"/>
      <point x="1165" y="1101" type="line"/>
      <point x="881" y="1101" type="line"/>
      <point x="854" y="971" type="line"/>
      <point x="823" y="1033"/>
      <point x="729" y="1130"/>
      <point x="541" y="1130" type="curve" smooth="yes"/>
      <point x="241" y="1130"/>
      <point x="72" y="892"/>
      <point x="72" y="565" type="curve" smooth="yes"/>
      <point x="72" y="213"/>
      <point x="277" y="-21"/>
      <point x="557" y="-21" type="curve" smooth="yes"/>
      <point x="782" y="-21"/>
      <point x="838" y="123"/>
      <point x="846" y="144" type="curve"/>
      <point x="840" y="88"/>
      <point x="838" y="41"/>
      <point x="838" y="6" type="curve" smooth="yes"/>
    </contour>
    <contour>
      <point x="627" y="214" type="curve" smooth="yes"/>
      <point x="504" y="214"/>
      <point x="393" y="299"/>
      <point x="393" y="556" type="curve" smooth="yes"/>
      <point x="393" y="824"/>
      <point x="508" y="892"/>
      <point x="623" y="892" type="curve" smooth="yes"/>
      <point x="757" y="892"/>
      <point x="854" y="812"/>
      <point x="854" y="539" type="curve"/>
      <point x="851" y="285"/>
      <point x="751" y="214"/>
    </contour>
  </outline>
</glyph>
<glyph name="t" format="1">
  <advance width="837"/>
  <unicode hex="0074"/>
  <outline>
    <contour>
      <point x="620" y="-11" type="curve" smooth="yes"/>
      <point x="727" y="-11"/>
      <point x="820" y="15"/>
      <point x="800" y="11" type="curve"/>
      <point x="793" y="236" type="line"/>
      <point x="807" y="238"/>
      <point x="736" y="230"/>
      <point x="684" y="230" type="curve" smooth="yes"/>
      <point x="542" y="230"/>
      <point x="514" y="307"/>
      <point x="514" y="464" type="curve" smooth="yes"/>
      <point x="514" y="918" type="line"/>
      <point x="766" y="918" type="line"/>
      <point x="766" y="1101" type="line"/>
      <point x="514" y="1101" type="line"/>
      <point x="514" y="1428" type="line"/>
      <point x="321" y="1429" type="line"/>
      <point x="220" y="1101" type="line"/>
      <point x="9" y="1082" type="line"/>
      <point x="-2" y="918" type="line"/>
      <point x="188" y="918" type="line"/>
      <point x="188" y="918"/>
      <point x="189" y="480"/>
      <point x="188" y="492" type="curve" smooth="yes"/>
      <point x="187" y="160"/>
      <point x="264" y="-11"/>
    </contour>
    <contour>
      <point x="419" y="549" type="move" name="center"/>
    </contour>
    <contour>
      <point x="419" y="0" type="move" name="bottom"/>
    </contour>
  </outline>
</glyph>
<glyph name="v" format="1">
  <advance width="1187"/>
  <unicode hex="0076"/>
  <outline>
    <contour>
      <point x="451" y="0" type="line"/>
      <point x="772" y="0" type="line"/>
      <point x="1185" y="1101" type="line"/>
      <point x="841" y="1101" type="line"/>
      <point x="869" y="1179"/>
      <point x="654" y="510"/>
      <point x="667" y="547" type="curve" smooth="yes"/>
      <point x="677" y="574"/>
      <point x="608" y="288"/>
      <point x="615" y="309" type="curve"/>
      <point x="585" y="411"/>
      <point x="570" y="467"/>
      <point x="546" y="541" type="curve"/>
      <point x="464" y="787"/>
      <point x="434" y="858"/>
      <point x="349" y="1101" type="curve"/>
      <point x="3" y="1101" type="line"/>
    </contour>
  </outline>
</glyph>
<glyph name="x" format="1">
  <advance width="1225"/>
  <unicode hex="0078"/>
  <outline>
    <contour>
      <point x="15" y="0" type="line"/>
      <point x="380" y="0" type="line"/>
      <point x="615" y="371" type="line"/>
      <point x="835" y="0" type="line"/>
      <point x="1211" y="0" type="line"/>
      <point x="831" y="569" type="line"/>
      <point x="1196" y="1101" type="line"/>
      <point x="837" y="1101" type="line"/>
      <point x="615" y="755" type="line"/>
      <point x="403" y="1101" type="line"/>
      <point x="36" y="1101" type="line"/>
      <point x="398" y="566" type="line"/>
    </contour>
  </outline>
</glyph>
<glyph name="y" format="1">
  <advance width="1178"/>
  <unicode hex="0079"/>
  <outline>
    <contour>
      <point x="233" y="-440" type="curve" smooth="yes"/>
      <point x="461" y="-440"/>
      <point x="611" y="-356"/>
      <point x="712" y="-89" type="curve" smooth="yes"/>
      <point x="708" y="-99"/>
      <point x="1175" y="1101"/>
      <point x="1175" y="1101" type="curve"/>
      <point x="825" y="1101" type="line"/>
      <point x="720" y="777"/>
      <point x="680" y="717"/>
      <point x="587" y="380" type="curve"/>
      <point x="336" y="1101" type="line"/>
      <point x="-12" y="1101" type="line"/>
      <point x="435" y="28" type="line"/>
      <point x="425" y="-5"/>
      <point x="418" y="-31"/>
      <point x="409" y="-52" type="curve" smooth="yes"/>
      <point x="366" y="-161"/>
      <point x="295" y="-195"/>
      <point x="199" y="-195" type="curve" smooth="yes"/>
      <point x="152" y="-195"/>
      <point x="103" y="-194"/>
      <point x="59" y="-188" type="curve"/>
      <point x="74" y="-432" type="line"/>
      <point x="127" y="-437"/>
      <point x="179" y="-440"/>
    </contour>
    <contour>
      <point x="589" y="1098" type="move" name="top"/>
    </contour>
  </outline>
</glyph>
<glyph name="z" format="1">
  <advance width="1020"/>
  <unicode hex="007A"/>
  <outline>
    <contour>
      <point x="53" y="0" type="line"/>
      <point x="962" y="0" type="line"/>
      <point x="962" y="231" type="line"/>
      <point x="459" y="231" type="line"/>
      <point x="945" y="890" type="line"/>
      <point x="945" y="1101" type="line"/>
      <point x="86" y="1101" type="line"/>
      <point x="86" y="885" type="line"/>
      <point x="585" y="885" type="line"/>
      <point x="53" y="181" type="line"/>
    </contour>
    <contour>
      <point x="510" y="1098" type="move" name="top"/>
    </contour>
  </outline>
</glyph>
<glyph name="braceleft" format="1">
  <advance width="821"/>
  <unicode hex="007B"/>
  <outline>
    <contour>
      <point x="745" y="-291" type="curve"/>
      <point x="745" y="-48" type="line"/>
      <point x="598" y="-46"/>
      <point x="579" y="-15"/>
      <point x="579" y="90" type="curve" smooth="yes"/>
      <point x="579" y="367" type="line" smooth="yes"/>
      <point x="579" y="523"/>
      <point x="491" y="579"/>
      <point x="349" y="599" type="curve"/>
      <point x="509" y="640"/>
      <point x="577" y="692"/>
      <point x="579" y="842" type="curve" smooth="yes"/>
      <point x="579" y="1113" type="line" smooth="yes"/>
      <point x="579" y="1219"/>
      <point x="599" y="1249"/>
      <point x="745" y="1251" type="curve"/>
      <point x="745" y="1493" type="line"/>
      <point x="427" y="1493"/>
      <point x="269" y="1457"/>
      <point x="269" y="1215" type="curve" smooth="yes"/>
      <point x="269" y="892" type="line" smooth="yes"/>
      <point x="269" y="754"/>
      <point x="205" y="730"/>
      <point x="36" y="731" type="curve"/>
      <point x="36" y="471" type="line"/>
      <point x="209" y="471"/>
      <point x="269" y="451"/>
      <point x="269" y="304" type="curve" smooth="yes"/>
      <point x="269" y="-21" type="line" smooth="yes"/>
      <point x="269" y="-258"/>
      <point x="433" y="-291"/>
    </contour>
  </outline>
</glyph>
<glyph name="sterling" format="1">
  <advance width="1161"/>
  <unicode hex="00A3"/>
  <outline>
    <contour>
      <point x="77" y="0" type="line"/>
      <point x="1117" y="0" type="line"/>
      <point x="1129" y="252" type="line"/>
      <point x="617" y="252" type="line" smooth="yes"/>
      <point x="625" y="252"/>
      <point x="427" y="253"/>
      <point x="435" y="253" type="curve"/>
      <point x="502" y="315"/>
      <point x="541" y="398"/>
      <point x="541" y="502" type="curve" smooth="yes"/>
      <point x="541" y="645" type="line"/>
      <point x="920" y="645" type="line"/>
      <point x="920" y="854" type="line"/>
      <point x="541" y="854" type="line"/>
      <point x="541" y="1033" type="line" smooth="yes"/>
      <point x="541" y="1156"/>
      <point x="601" y="1226"/>
      <point x="723" y="1226" type="curve" smooth="yes"/>
      <point x="825" y="1226"/>
      <point x="903" y="1181"/>
      <point x="991" y="1128" type="curve"/>
      <point x="1112" y="1329" type="line"/>
      <point x="1004" y="1419"/>
      <point x="871" y="1476"/>
      <point x="707" y="1476" type="curve" smooth="yes"/>
      <point x="397" y="1476"/>
      <point x="240" y="1289"/>
      <point x="240" y="965" type="curve" smooth="yes"/>
      <point x="240" y="854" type="line"/>
      <point x="56" y="854" type="line"/>
      <point x="56" y="644" type="line"/>
      <point x="240" y="644" type="line"/>
      <point x="240" y="482" type="line" smooth="yes"/>
      <point x="240" y="329"/>
      <point x="190" y="283"/>
      <point x="59" y="224" type="curve"/>
    </contour>
  </outline>
</glyph>
<glyph name="yen" format="1">
  <advance width="1233"/>
  <unicode hex="00A5"/>
  <outline>
    <contour>
      <point x="460" y="0" type="line"/>
      <point x="793" y="0" type="line"/>
      <point x="793" y="283" type="line"/>
      <point x="1147" y="283" type="line"/>
      <point x="1147" y="454" type="line"/>
      <point x="793" y="454" type="line"/>
      <point x="793" y="568" type="line"/>
      <point x="1147" y="568" type="line"/>
      <point x="1147" y="739" type="line"/>
      <point x="891" y="739" type="line"/>
      <point x="1323" y="1445" type="line"/>
      <point x="972" y="1445" type="line"/>
      <point x="621" y="860" type="line"/>
      <point x="264" y="1445" type="line"/>
      <point x="-90" y="1445" type="line"/>
      <point x="360" y="739" type="line"/>
      <point x="118" y="739" type="line"/>
      <point x="118" y="568" type="line"/>
      <point x="460" y="568" type="line"/>
      <point x="460" y="454" type="line"/>
      <point x="118" y="454" type="line"/>
      <point x="118" y="283" type="line"/>
      <point x="460" y="283" type="line"/>
    </contour>
  </outline>
</glyph>
<glyph name="brokenbar" format="1">
  <advance width="836"/>
  <unicode hex="00A6"/>
  <outline>
    <contour>
      <point x="296" y="-365" type="line"/>
      <point x="536" y="-365" type="line"/>
      <point x="536" y="360" type="line"/>
      <point x="296" y="360" type="line"/>
    </contour>
    <contour>
      <point x="296" y="785" type="line"/>
      <point x="536" y="785" type="line"/>
      <point x="536" y="1510" type="line"/>
      <point x="296" y="1510" type="line"/>
    </contour>
  </outline>
</glyph>
<glyph name="section" format="1">
  <advance width="1046"/>
  <unicode hex="00A7"/>
  <outline>
    <contour>
      <point x="490" y="-32" type="curve" smooth="yes"/>
      <point x="732" y="-32"/>
      <point x="926" y="70"/>
      <point x="926" y="288" type="curve" smooth="yes"/>
      <point x="926" y="388"/>
      <point x="882" y="455"/>
      <point x="814" y="505" type="curve"/>
      <point x="883" y="557"/>
      <point x="937" y="635"/>
      <point x="937" y="752" type="curve" smooth="yes"/>
      <point x="937" y="925"/>
      <point x="773" y="1017"/>
      <point x="594" y="1090" type="curve"/>
      <point x="489" y="1134"/>
      <point x="421" y="1173"/>
      <point x="421" y="1232" type="curve" smooth="yes"/>
      <point x="421" y="1297"/>
      <point x="475" y="1320"/>
      <point x="562" y="1320" type="curve" smooth="yes"/>
      <point x="670" y="1320"/>
      <point x="784" y="1288"/>
      <point x="853" y="1259" type="curve"/>
      <point x="850" y="1247"/>
      <point x="898" y="1480"/>
      <point x="896" y="1468" type="curve"/>
      <point x="790" y="1506"/>
      <point x="652" y="1528"/>
      <point x="555" y="1531" type="curve"/>
      <point x="322" y="1534"/>
      <point x="144" y="1441"/>
      <point x="144" y="1231" type="curve" smooth="yes"/>
      <point x="144" y="1133"/>
      <point x="185" y="1057"/>
      <point x="256" y="1004" type="curve"/>
      <point x="187" y="953"/>
      <point x="127" y="871"/>
      <point x="127" y="762" type="curve" smooth="yes"/>
      <point x="127" y="583"/>
      <point x="277" y="498"/>
      <point x="474" y="417" type="curve"/>
      <point x="621" y="350"/>
      <point x="664" y="292"/>
      <point x="633" y="240" type="curve" smooth="yes"/>
      <point x="614" y="190"/>
      <point x="549" y="178"/>
      <point x="473" y="178" type="curve" smooth="yes"/>
      <point x="372" y="178"/>
      <point x="223" y="217"/>
      <point x="134" y="256" type="curve"/>
      <point x="134" y="41" type="line"/>
      <point x="234" y="-5"/>
      <point x="360" y="-32"/>
    </contour>
    <contour>
      <point x="622" y="597" type="curve"/>
      <point x="595" y="607"/>
      <point x="584" y="612"/>
      <point x="559" y="623" type="curve"/>
      <point x="469" y="666"/>
      <point x="382" y="727"/>
      <point x="382" y="794" type="curve" smooth="yes"/>
      <point x="382" y="833"/>
      <point x="404" y="876"/>
      <point x="448" y="903" type="curve"/>
      <point x="578" y="852"/>
      <point x="687" y="787"/>
      <point x="687" y="707" type="curve" smooth="yes"/>
      <point x="687" y="669"/>
      <point x="672" y="632"/>
    </contour>
  </outline>
</glyph>
<glyph name="copyright" format="1">
  <advance width="1677"/>
  <unicode hex="00A9"/>
  <outline>
    <contour>
      <point x="817" y="244" type="curve" smooth="yes"/>
      <point x="937" y="244"/>
      <point x="1029" y="267"/>
      <point x="1115" y="325" type="curve"/>
      <point x="1067" y="428" type="line"/>
      <point x="983" y="383"/>
      <point x="897" y="365"/>
      <point x="829" y="365" type="curve" smooth="yes"/>
      <point x="656" y="365"/>
      <point x="515" y="493"/>
      <point x="515" y="712" type="curve" smooth="yes"/>
      <point x="515" y="946"/>
      <point x="656" y="1075"/>
      <point x="834" y="1075" type="curve" smooth="yes"/>
      <point x="902" y="1075"/>
      <point x="990" y="1054"/>
      <point x="1073" y="1010" type="curve"/>
      <point x="1116" y="1119" type="line"/>
      <point x="1033" y="1173"/>
      <point x="930" y="1196"/>
      <point x="809" y="1196" type="curve" smooth="yes"/>
      <point x="547" y="1196"/>
      <point x="364" y="977"/>
      <point x="364" y="715" type="curve" smooth="yes"/>
      <point x="364" y="440"/>
      <point x="558" y="244"/>
    </contour>
    <contour>
      <point x="843" y="86" type="curve" smooth="yes"/>
      <point x="493" y="86"/>
      <point x="188" y="367"/>
      <point x="188" y="714" type="curve" smooth="yes"/>
      <point x="188" y="1064"/>
      <point x="493" y="1344"/>
      <point x="845" y="1344" type="curve" smooth="yes"/>
      <point x="1189" y="1344"/>
      <point x="1496" y="1064"/>
      <point x="1496" y="716" type="curve" smooth="yes"/>
      <point x="1496" y="367"/>
      <point x="1188" y="86"/>
    </contour>
    <contour>
      <point x="843" y="-20" type="curve" smooth="yes"/>
      <point x="1272" y="-20"/>
      <point x="1614" y="327"/>
      <point x="1614" y="715" type="curve" smooth="yes"/>
      <point x="1614" y="1102"/>
      <point x="1273" y="1451"/>
      <point x="845" y="1451" type="curve" smooth="yes"/>
      <point x="406" y="1451"/>
      <point x="70" y="1102"/>
      <point x="70" y="715" type="curve" smooth="yes"/>
      <point x="70" y="327"/>
      <point x="405" y="-20"/>
    </contour>
  </outline>
</glyph>
<glyph name="logicalnot" format="1">
  <advance width="1328"/>
  <unicode hex="00AC"/>
  <outline>
    <contour>
      <point x="958" y="239" type="line"/>
      <point x="1186" y="239" type="line"/>
      <point x="1186" y="840" type="line"/>
      <point x="147" y="840" type="line"/>
      <point x="147" y="615" type="line"/>
      <point x="958" y="615" type="line"/>
    </contour>
  </outline>
</glyph>
<glyph name="uni00AD" format="1">
  <advance width="611"/>
  <unicode hex="00AD"/>
  <outline>
    <contour>
      <point x="54" y="476" type="line"/>
      <point x="556" y="476" type="line"/>
      <point x="556" y="716" type="line"/>
      <point x="54" y="716" type="line"/>
    </contour>
  </outline>
</glyph>
<glyph name="registered" format="1">
  <advance width="1675"/>
  <unicode hex="00AE"/>
  <outline>
    <contour>
      <point x="528" y="251" type="line"/>
      <point x="686" y="251" type="line"/>
      <point x="686" y="669" type="line"/>
      <point x="817" y="669" type="line"/>
      <point x="812" y="678"/>
      <point x="864" y="580"/>
      <point x="915" y="481" type="curve" smooth="yes"/>
      <point x="979" y="360"/>
      <point x="1015" y="285"/>
      <point x="1034" y="251" type="curve"/>
      <point x="1210" y="251" type="line"/>
      <point x="1154" y="369"/>
      <point x="1012" y="612"/>
      <point x="973" y="685" type="curve"/>
      <point x="1103" y="725"/>
      <point x="1156" y="782"/>
      <point x="1156" y="936" type="curve" smooth="yes"/>
      <point x="1156" y="1133"/>
      <point x="1018" y="1192"/>
      <point x="856" y="1192" type="curve" smooth="yes"/>
      <point x="528" y="1192" type="line"/>
    </contour>
    <contour>
      <point x="685" y="793" type="line"/>
      <point x="685" y="1067" type="line"/>
      <point x="792" y="1067" type="line" smooth="yes"/>
      <point x="928" y="1067"/>
      <point x="1012" y="1070"/>
      <point x="1012" y="938" type="curve" smooth="yes"/>
      <point x="1012" y="809"/>
      <point x="927" y="793"/>
      <point x="801" y="793" type="curve" smooth="yes"/>
    </contour>
    <contour>
      <point x="841" y="86" type="curve" smooth="yes"/>
      <point x="492" y="86"/>
      <point x="188" y="367"/>
      <point x="188" y="714" type="curve" smooth="yes"/>
      <point x="188" y="1064"/>
      <point x="492" y="1344"/>
      <point x="842" y="1344" type="curve" smooth="yes"/>
      <point x="1185" y="1344"/>
      <point x="1489" y="1064"/>
      <point x="1489" y="716" type="curve" smooth="yes"/>
      <point x="1489" y="367"/>
      <point x="1184" y="86"/>
    </contour>
    <contour>
      <point x="841" y="-20" type="curve" smooth="yes"/>
      <point x="1268" y="-20"/>
      <point x="1607" y="327"/>
      <point x="1607" y="715" type="curve" smooth="yes"/>
      <point x="1607" y="1102"/>
      <point x="1270" y="1451"/>
      <point x="842" y="1451" type="curve" smooth="yes"/>
      <point x="405" y="1451"/>
      <point x="70" y="1102"/>
      <point x="70" y="715" type="curve" smooth="yes"/>
      <point x="70" y="327"/>
      <point x="404" y="-20"/>
    </contour>
  </outline>
</glyph>
<glyph name="macron" format="1">
  <advance width="812"/>
  <unicode hex="00AF"/>
  <outline>
    <contour>
      <point x="79" y="1293" type="line"/>
      <point x="750" y="1293" type="line"/>
      <point x="750" y="1466" type="line"/>
      <point x="79" y="1466" type="line"/>
    </contour>
    <contour>
      <point x="414.5" y="1098" type="move" name="_top"/>
    </contour>
  </outline>
</glyph>
<glyph name="degree" format="1">
  <advance width="852"/>
  <unicode hex="00B0"/>
  <outline>
    <contour>
      <point x="430" y="991" type="curve" smooth="yes"/>
      <point x="359" y="991"/>
      <point x="281" y="1036"/>
      <point x="281" y="1138" type="curve" smooth="yes"/>
      <point x="281" y="1234"/>
      <point x="358" y="1277"/>
      <point x="430" y="1277" type="curve" smooth="yes"/>
      <point x="501" y="1277"/>
      <point x="576" y="1235"/>
      <point x="576" y="1138" type="curve" smooth="yes"/>
      <point x="576" y="1035"/>
      <point x="501" y="991"/>
    </contour>
    <contour>
      <point x="429" y="858" type="curve" smooth="yes"/>
      <point x="648" y="858"/>
      <point x="746" y="1003"/>
      <point x="746" y="1141" type="curve" smooth="yes"/>
      <point x="746" y="1281"/>
      <point x="645" y="1412"/>
      <point x="429" y="1412" type="curve" smooth="yes"/>
      <point x="209" y="1412"/>
      <point x="111" y="1281"/>
      <point x="111" y="1141" type="curve" smooth="yes"/>
      <point x="111" y="1005"/>
      <point x="206" y="858"/>
    </contour>
  </outline>
</glyph>
<glyph name="paragraph" format="1">
  <advance width="1289"/>
  <unicode hex="00B6"/>
  <outline>
    <contour>
      <point x="437" y="-144" type="line"/>
      <point x="676" y="-146" type="line"/>
      <point x="676" y="1239" type="line"/>
      <point x="805" y="1239" type="line"/>
      <point x="805" y="-146" type="line"/>
      <point x="1005" y="-146" type="line"/>
      <point x="1005" y="1239" type="line"/>
      <point x="1092" y="1239" type="line"/>
      <point x="1092" y="1436" type="line"/>
      <point x="705" y="1436" type="line" smooth="yes"/>
      <point x="422" y="1436"/>
      <point x="122" y="1402"/>
      <point x="122" y="1098" type="curve" smooth="yes"/>
      <point x="122" y="898"/>
      <point x="238" y="764"/>
      <point x="437" y="738" type="curve"/>
    </contour>
  </outline>
</glyph>
<glyph name="periodcentered" format="1">
  <advance width="391"/>
  <unicode hex="00B7"/>
  <outline>
    <contour>
      <point x="50" y="439" type="line"/>
      <point x="341" y="439" type="line"/>
      <point x="341" y="727" type="line"/>
      <point x="50" y="727" type="line"/>
    </contour>
  </outline>
</glyph>
<glyph name="uni00B9" format="1">
  <advance width="837"/>
  <unicode hex="00B9"/>
  <outline>
    <contour>
      <point x="161" y="568" type="line"/>
      <point x="712" y="568" type="line"/>
      <point x="712" y="751" type="line"/>
      <point x="561" y="751" type="line"/>
      <point x="561" y="1448" type="line"/>
      <point x="386" y="1448" type="line"/>
      <point x="396" y="1458"/>
      <point x="123" y="1328"/>
      <point x="138" y="1336" type="curve"/>
      <point x="138" y="1158" type="line"/>
      <point x="127" y="1152"/>
      <point x="329" y="1240"/>
      <point x="319" y="1234" type="curve"/>
      <point x="319" y="751" type="line"/>
      <point x="161" y="751" type="line"/>
    </contour>
  </outline>
</glyph>
<glyph name="ordmasculine" format="1">
  <advance width="843"/>
  <unicode hex="00BA"/>
  <outline>
    <contour>
      <point x="429" y="871" type="curve" smooth="yes"/>
      <point x="291" y="871"/>
      <point x="237" y="949"/>
      <point x="237" y="1077" type="curve" smooth="yes"/>
      <point x="237" y="1198"/>
      <point x="290" y="1281"/>
      <point x="425" y="1281" type="curve" smooth="yes"/>
      <point x="564" y="1281"/>
      <point x="618" y="1201"/>
      <point x="618" y="1073" type="curve" smooth="yes"/>
      <point x="618" y="950"/>
      <point x="564" y="871"/>
    </contour>
    <contour>
      <point x="429" y="690" type="curve" smooth="yes"/>
      <point x="674" y="690"/>
      <point x="825" y="847"/>
      <point x="825" y="1075" type="curve" smooth="yes"/>
      <point x="825" y="1307"/>
      <point x="678" y="1460"/>
      <point x="429" y="1460" type="curve" smooth="yes"/>
      <point x="183" y="1460"/>
      <point x="27" y="1308"/>
      <point x="27" y="1078" type="curve" smooth="yes"/>
      <point x="27" y="843"/>
      <point x="177" y="690"/>
    </contour>
  </outline>
</glyph>
<glyph name="guillemotright" format="1">
  <advance width="1272"/>
  <unicode hex="00BB"/>
  <outline>
    <contour>
      <point x="370" y="128" type="line"/>
      <point x="710" y="572" type="line"/>
      <point x="372" y="999" type="line"/>
      <point x="124" y="934" type="line"/>
      <point x="405" y="562" type="line"/>
      <point x="120" y="194" type="line"/>
    </contour>
    <contour>
      <point x="833" y="128" type="line"/>
      <point x="1175" y="572" type="line"/>
      <point x="838" y="999" type="line"/>
      <point x="591" y="934" type="line"/>
      <point x="868" y="562" type="line"/>
      <point x="587" y="194" type="line"/>
    </contour>
  </outline>
</glyph>
<glyph name="onequarter" format="1">
  <advance width="1812"/>
  <unicode hex="00BC"/>
  <outline>
    <contour>
      <point x="84" y="568" type="line"/>
      <point x="635" y="568" type="line"/>
      <point x="635" y="751" type="line"/>
      <point x="483" y="751" type="line"/>
      <point x="483" y="1448" type="line"/>
      <point x="309" y="1448" type="line"/>
      <point x="319" y="1458"/>
      <point x="46" y="1328"/>
      <point x="61" y="1336" type="curve"/>
      <point x="61" y="1158" type="line"/>
      <point x="50" y="1152"/>
      <point x="251" y="1240"/>
      <point x="242" y="1234" type="curve"/>
      <point x="242" y="751" type="line"/>
      <point x="84" y="751" type="line"/>
    </contour>
    <contour>
      <point x="1438" y="-10" type="line"/>
      <point x="1629" y="-10" type="line"/>
      <point x="1630" y="144" type="line"/>
      <point x="1756" y="144" type="line"/>
      <point x="1759" y="291" type="line"/>
      <point x="1631" y="291" type="line"/>
      <point x="1631" y="843" type="line"/>
      <point x="1418" y="843" type="line"/>
      <point x="1026" y="314" type="line"/>
      <point x="1026" y="144" type="line"/>
      <point x="1438" y="144" type="line"/>
    </contour>
    <contour>
      <point x="345" y="0" type="line"/>
      <point x="590" y="0" type="line"/>
      <point x="1668" y="1421" type="line"/>
      <point x="1435" y="1421" type="line"/>
    </contour>
    <contour>
      <point x="1250" y="291" type="line"/>
      <point x="1436" y="599" type="line"/>
      <point x="1436" y="606"/>
      <point x="1436" y="291"/>
      <point x="1436" y="291" type="curve"/>
    </contour>
  </outline>
</glyph>
<glyph name="threequarters" format="1">
  <advance width="1719"/>
  <unicode hex="00BE"/>
  <outline>
    <contour>
      <point x="349" y="614" type="curve" smooth="yes"/>
      <point x="522" y="614"/>
      <point x="674" y="694"/>
      <point x="674" y="873" type="curve" smooth="yes"/>
      <point x="674" y="959"/>
      <point x="600" y="1040"/>
      <point x="526" y="1061" type="curve"/>
      <point x="655" y="1092"/>
      <point x="656" y="1224"/>
      <point x="656" y="1203" type="curve" smooth="yes"/>
      <point x="656" y="1360"/>
      <point x="522" y="1416"/>
      <point x="368" y="1416" type="curve" smooth="yes"/>
      <point x="253" y="1416"/>
      <point x="134" y="1386"/>
      <point x="55" y="1333" type="curve"/>
      <point x="125" y="1224" type="line"/>
      <point x="161" y="1243"/>
      <point x="264" y="1267"/>
      <point x="343" y="1267" type="curve" smooth="yes"/>
      <point x="426" y="1267"/>
      <point x="456" y="1231"/>
      <point x="456" y="1196" type="curve" smooth="yes"/>
      <point x="456" y="1161"/>
      <point x="432" y="1117"/>
      <point x="312" y="1117" type="curve" smooth="yes"/>
      <point x="210" y="1117" type="line"/>
      <point x="210" y="976" type="line"/>
      <point x="306" y="977" type="line" smooth="yes"/>
      <point x="419" y="977"/>
      <point x="482" y="947"/>
      <point x="482" y="879" type="curve" smooth="yes"/>
      <point x="482" y="796"/>
      <point x="431" y="766"/>
      <point x="339" y="766" type="curve" smooth="yes"/>
      <point x="270" y="766"/>
      <point x="160" y="783"/>
      <point x="116" y="816" type="curve"/>
      <point x="70" y="681" type="line"/>
      <point x="156" y="636"/>
      <point x="257" y="614"/>
    </contour>
    <contour>
      <point x="1342" y="-11" type="line"/>
      <point x="1532" y="-11" type="line"/>
      <point x="1534" y="154" type="line"/>
      <point x="1660" y="154" type="line"/>
      <point x="1662" y="301" type="line"/>
      <point x="1535" y="301" type="line"/>
      <point x="1535" y="879" type="line"/>
      <point x="1322" y="879" type="line"/>
      <point x="930" y="324" type="line"/>
      <point x="930" y="154" type="line"/>
      <point x="1342" y="154" type="line"/>
    </contour>
    <contour>
      <point x="245" y="0" type="line"/>
      <point x="494" y="0" type="line"/>
      <point x="1563" y="1421" type="line"/>
      <point x="1333" y="1421" type="line"/>
    </contour>
    <contour>
      <point x="1154" y="301" type="line"/>
      <point x="1339" y="627" type="line"/>
      <point x="1340" y="642"/>
      <point x="1340" y="239"/>
      <point x="1340" y="301" type="curve"/>
    </contour>
  </outline>
</glyph>
<glyph name="AE" format="1">
  <advance width="1973"/>
  <unicode hex="00C6"/>
  <outline>
    <contour>
      <point x="6" y="0" type="line"/>
      <point x="394" y="0" type="line"/>
      <point x="576" y="341" type="line"/>
      <point x="1013" y="341" type="line"/>
      <point x="1043" y="0" type="line"/>
      <point x="1876" y="0" type="line"/>
      <point x="1899" y="221" type="line"/>
      <point x="1373" y="221" type="line"/>
      <point x="1336" y="609" type="line"/>
      <point x="1811" y="609" type="line"/>
      <point x="1811" y="830" type="line"/>
      <point x="1316" y="830" type="line"/>
      <point x="1287" y="1203" type="line"/>
      <point x="1829" y="1203" type="line"/>
      <point x="1855" y="1423" type="line"/>
      <point x="802" y="1423" type="line"/>
    </contour>
    <contour>
      <point x="675" y="560" type="line"/>
      <point x="959" y="1119" type="line"/>
      <point x="1001" y="560" type="line"/>
    </contour>
    <contour>
      <point x="987" y="1455" type="move" name="top"/>
    </contour>
  </outline>
</glyph>
<glyph name="Eth" format="1">
  <advance width="1525"/>
  <unicode hex="00D0"/>
  <outline>
    <contour>
      <point x="448" y="240" type="line"/>
      <point x="448" y="618" type="line"/>
      <point x="617" y="618" type="line"/>
      <point x="617" y="827" type="line"/>
      <point x="448" y="827" type="line"/>
      <point x="448" y="1199" type="line"/>
      <point x="543" y="1199" type="line" smooth="yes"/>
      <point x="952" y="1199"/>
      <point x="1136" y="1076"/>
      <point x="1136" y="719" type="curve" smooth="yes"/>
      <point x="1136" y="418"/>
      <point x="958" y="240"/>
      <point x="629" y="240" type="curve" smooth="yes"/>
    </contour>
    <contour>
      <point x="120" y="1" type="line"/>
      <point x="614" y="1" type="line" smooth="yes"/>
      <point x="1114" y="1"/>
      <point x="1460" y="259"/>
      <point x="1460" y="723" type="curve" smooth="yes"/>
      <point x="1460" y="1241"/>
      <point x="1086" y="1441"/>
      <point x="524" y="1441" type="curve" smooth="yes"/>
      <point x="120" y="1441" type="line"/>
      <point x="120" y="827" type="line"/>
      <point x="-10" y="827" type="line"/>
      <point x="-10" y="618" type="line"/>
      <point x="120" y="618" type="line"/>
    </contour>
  </outline>
</glyph>
<glyph name="Thorn" format="1">
  <advance width="1351"/>
  <unicode hex="00DE"/>
  <outline>
    <contour>
      <point x="198" y="19" type="line"/>
      <point x="450" y="19" type="line"/>
      <point x="450" y="332" type="line"/>
      <point x="450" y="332"/>
      <point x="730" y="333"/>
      <point x="728" y="333" type="curve" smooth="yes"/>
      <point x="1022" y="333"/>
      <point x="1318" y="474"/>
      <point x="1318" y="781" type="curve" smooth="yes"/>
      <point x="1318" y="1108"/>
      <point x="1033" y="1237"/>
      <point x="713" y="1237" type="curve" smooth="yes"/>
      <point x="450" y="1237" type="line"/>
      <point x="450" y="1426" type="line"/>
      <point x="198" y="1426" type="line"/>
    </contour>
    <contour>
      <point x="452" y="562" type="line"/>
      <point x="450" y="1042" type="line"/>
      <point x="739" y="1042" type="line" smooth="yes"/>
      <point x="924" y="1042"/>
      <point x="1056" y="975"/>
      <point x="1056" y="800" type="curve" smooth="yes"/>
      <point x="1056" y="639"/>
      <point x="922" y="562"/>
      <point x="757" y="562" type="curve" smooth="yes"/>
    </contour>
  </outline>
</glyph>
<glyph name="ae" format="1">
  <advance width="1682"/>
  <unicode hex="00E6"/>
  <outline>
    <contour>
      <point x="415" y="-20" type="curve" smooth="yes"/>
      <point x="634" y="-20"/>
      <point x="748" y="62"/>
      <point x="825" y="156" type="curve"/>
      <point x="902" y="52"/>
      <point x="1024" y="-19"/>
      <point x="1238" y="-19" type="curve" smooth="yes"/>
      <point x="1423" y="-19"/>
      <point x="1514" y="14"/>
      <point x="1605" y="73" type="curve"/>
      <point x="1520" y="263" type="line"/>
      <point x="1482" y="230"/>
      <point x="1387" y="200"/>
      <point x="1258" y="200" type="curve" smooth="yes"/>
      <point x="1091" y="203"/>
      <point x="984" y="296"/>
      <point x="981" y="494" type="curve"/>
      <point x="1143" y="507"/>
      <point x="1447" y="535"/>
      <point x="1508" y="539" type="curve" smooth="yes"/>
      <point x="1569" y="540"/>
      <point x="1645" y="549"/>
      <point x="1645" y="585" type="curve" smooth="yes"/>
      <point x="1645" y="885"/>
      <point x="1523" y="1143"/>
      <point x="1220" y="1143" type="curve" smooth="yes"/>
      <point x="1052" y="1143"/>
      <point x="926" y="1057"/>
      <point x="855" y="977" type="curve"/>
      <point x="811" y="1080"/>
      <point x="697" y="1142"/>
      <point x="525" y="1142" type="curve" smooth="yes"/>
      <point x="335" y="1142"/>
      <point x="241" y="1109"/>
      <point x="135" y="1065" type="curve"/>
      <point x="193" y="858" type="line"/>
      <point x="232" y="868"/>
      <point x="372" y="931"/>
      <point x="495" y="931" type="curve" smooth="yes"/>
      <point x="648" y="922"/>
      <point x="679" y="854"/>
      <point x="679" y="725" type="curve" smooth="yes"/>
      <point x="679" y="640" type="line"/>
      <point x="580" y="629" type="line"/>
      <point x="233" y="581"/>
      <point x="66" y="555"/>
      <point x="66" y="328" type="curve" smooth="yes"/>
      <point x="66" y="169"/>
      <point x="185" y="-20"/>
    </contour>
    <contour>
      <point x="471" y="174" type="curve" smooth="yes"/>
      <point x="380" y="174"/>
      <point x="344" y="236"/>
      <point x="344" y="315" type="curve" smooth="yes"/>
      <point x="344" y="416"/>
      <point x="462" y="420"/>
      <point x="580" y="443" type="curve" smooth="yes"/>
      <point x="575" y="442"/>
      <point x="694" y="459"/>
      <point x="689" y="459" type="curve"/>
      <point x="687" y="405"/>
      <point x="727" y="299"/>
      <point x="716" y="317" type="curve"/>
      <point x="648" y="231"/>
      <point x="571" y="174"/>
    </contour>
    <contour>
      <point x="981" y="664" type="line"/>
      <point x="1000" y="909"/>
      <point x="1157" y="918"/>
      <point x="1219" y="918" type="curve" smooth="yes"/>
      <point x="1361" y="918"/>
      <point x="1367" y="780"/>
      <point x="1367" y="754" type="curve"/>
      <point x="1367" y="725"/>
      <point x="1364" y="709"/>
      <point x="1364" y="709" type="curve"/>
    </contour>
    <contour>
      <point x="841" y="1098" type="move" name="top"/>
    </contour>
  </outline>
</glyph>
<glyph name="thorn" format="1">
  <advance width="1344"/>
  <unicode hex="00FE"/>
  <outline>
    <contour>
      <point x="184" y="-413" type="line"/>
      <point x="447" y="-413" type="line"/>
      <point x="447" y="88" type="line"/>
      <point x="428" y="120"/>
      <point x="539" y="-15"/>
      <point x="782" y="-15" type="curve" smooth="yes"/>
      <point x="1125" y="-15"/>
      <point x="1277" y="204"/>
      <point x="1277" y="495" type="curve" smooth="yes"/>
      <point x="1277" y="790"/>
      <point x="1122" y="1038"/>
      <point x="757" y="1038" type="curve"/>
      <point x="549" y="1038"/>
      <point x="426" y="910"/>
      <point x="447" y="942" type="curve"/>
      <point x="447" y="1490" type="line"/>
      <point x="175" y="1490" type="line"/>
      <point x="175" y="1490"/>
      <point x="184" y="1308"/>
      <point x="184" y="1199" type="curve"/>
    </contour>
    <contour>
      <point x="740" y="218" type="curve" smooth="yes"/>
      <point x="534" y="218"/>
      <point x="446" y="330"/>
      <point x="446" y="517" type="curve" smooth="yes"/>
      <point x="446" y="704"/>
      <point x="528" y="817"/>
      <point x="739" y="817" type="curve" smooth="yes"/>
      <point x="926" y="817"/>
      <point x="1007" y="701"/>
      <point x="1007" y="517" type="curve" smooth="yes"/>
      <point x="1007" y="334"/>
      <point x="928" y="218"/>
    </contour>
  </outline>
</glyph>
<glyph name="dcroat" format="1">
  <advance width="1279"/>
  <unicode hex="0111"/>
  <outline>
    <contour>
      <point x="562" y="-19" type="curve" smooth="yes"/>
      <point x="726" y="-19"/>
      <point x="820" y="51"/>
      <point x="870" y="143" type="curve"/>
      <point x="873" y="0" type="line"/>
      <point x="1182" y="0" type="line"/>
      <point x="1182" y="1215" type="line"/>
      <point x="1281" y="1215" type="line"/>
      <point x="1281" y="1357" type="line"/>
      <point x="1182" y="1357" type="line"/>
      <point x="1182" y="1518" type="line"/>
      <point x="870" y="1501" type="line"/>
      <point x="870" y="1357" type="line"/>
      <point x="543" y="1357" type="line"/>
      <point x="543" y="1215" type="line"/>
      <point x="870" y="1215" type="line"/>
      <point x="870" y="987" type="line"/>
      <point x="834" y="1054"/>
      <point x="755" y="1141"/>
      <point x="560" y="1141" type="curve" smooth="yes"/>
      <point x="232" y="1141"/>
      <point x="63" y="872"/>
      <point x="63" y="566" type="curve" smooth="yes"/>
      <point x="63" y="241"/>
      <point x="248" y="-10"/>
    </contour>
    <contour>
      <point x="626" y="205" type="curve" smooth="yes"/>
      <point x="518" y="205"/>
      <point x="359" y="254"/>
      <point x="359" y="555" type="curve" smooth="yes"/>
      <point x="359" y="878"/>
      <point x="522" y="917"/>
      <point x="626" y="917" type="curve" smooth="yes"/>
      <point x="732" y="917"/>
      <point x="875" y="852"/>
      <point x="875" y="556" type="curve" smooth="yes"/>
      <point x="875" y="255"/>
      <point x="740" y="205"/>
    </contour>
  </outline>
</glyph>
<glyph name="hbar" format="1">
  <advance width="1240"/>
  <unicode hex="0127"/>
  <outline>
    <contour>
      <point x="102" y="0" type="line"/>
      <point x="413" y="0" type="line"/>
      <point x="413" y="743" type="line"/>
      <point x="477" y="833"/>
      <point x="578" y="891"/>
      <point x="688" y="891" type="curve" smooth="yes"/>
      <point x="810" y="891"/>
      <point x="840" y="820"/>
      <point x="840" y="678" type="curve" smooth="yes"/>
      <point x="840" y="0" type="line"/>
      <point x="1152" y="0" type="line"/>
      <point x="1152" y="669" type="line" smooth="yes"/>
      <point x="1152" y="1033"/>
      <point x="952" y="1117"/>
      <point x="753" y="1117" type="curve" smooth="yes"/>
      <point x="617" y="1117"/>
      <point x="504" y="1074"/>
      <point x="413" y="989" type="curve"/>
      <point x="413" y="1195" type="line"/>
      <point x="726" y="1195" type="line"/>
      <point x="726" y="1344" type="line"/>
      <point x="413" y="1344" type="line"/>
      <point x="413" y="1518" type="line"/>
      <point x="102" y="1500" type="line"/>
      <point x="102" y="1344" type="line"/>
      <point x="-5" y="1344" type="line"/>
      <point x="-5" y="1195" type="line"/>
      <point x="102" y="1195" type="line"/>
    </contour>
  </outline>
</glyph>
<glyph name="Lslash" format="1">
  <advance width="1046"/>
  <unicode hex="0141"/>
  <outline>
    <contour>
      <point x="119" y="0" type="line"/>
      <point x="1025" y="0" type="line"/>
      <point x="1042" y="234" type="line"/>
      <point x="448" y="234" type="line"/>
      <point x="448" y="776" type="line"/>
      <point x="754" y="958" type="line"/>
      <point x="754" y="1164" type="line"/>
      <point x="448" y="984" type="line"/>
      <point x="448" y="1441" type="line"/>
      <point x="119" y="1441" type="line"/>
      <point x="119" y="786" type="line"/>
      <point x="-34" y="691" type="line"/>
      <point x="-34" y="482" type="line"/>
      <point x="119" y="577" type="line"/>
    </contour>
  </outline>
</glyph>
<glyph name="lslash" format="1">
  <advance width="739"/>
  <unicode hex="0142"/>
  <outline>
    <contour>
      <point x="571" y="-11" type="curve" smooth="yes"/>
      <point x="636" y="-11"/>
      <point x="740" y="5"/>
      <point x="727" y="3" type="curve"/>
      <point x="711" y="228" type="line"/>
      <point x="723" y="229"/>
      <point x="633" y="223"/>
      <point x="631" y="223" type="curve" smooth="yes"/>
      <point x="465" y="223"/>
      <point x="454" y="276"/>
      <point x="454" y="442" type="curve" smooth="yes"/>
      <point x="454" y="941" type="line"/>
      <point x="600" y="1012" type="line"/>
      <point x="600" y="1218" type="line"/>
      <point x="454" y="1148" type="line"/>
      <point x="454" y="1518" type="line"/>
      <point x="142" y="1498" type="line"/>
      <point x="142" y="981" type="line"/>
      <point x="30" y="926" type="line"/>
      <point x="30" y="717" type="line"/>
      <point x="142" y="772" type="line"/>
      <point x="142" y="453" type="line" smooth="yes"/>
      <point x="142" y="155"/>
      <point x="220" y="-11"/>
    </contour>
  </outline>
</glyph>
<glyph name="OE" format="1">
  <advance width="2306"/>
  <unicode hex="0152"/>
  <outline>
    <contour>
      <point x="809" y="-17" type="curve" smooth="yes"/>
      <point x="959" y="-17"/>
      <point x="1066" y="17"/>
      <point x="1182" y="87" type="curve"/>
      <point x="1182" y="6" type="line"/>
      <point x="2266" y="6" type="line"/>
      <point x="2284" y="244" type="line"/>
      <point x="1491" y="244" type="line"/>
      <point x="1491" y="641" type="line"/>
      <point x="2206" y="641" type="line"/>
      <point x="2206" y="875" type="line"/>
      <point x="1491" y="875" type="line"/>
      <point x="1491" y="1200" type="line"/>
      <point x="2233" y="1200" type="line"/>
      <point x="2252" y="1439" type="line"/>
      <point x="1182" y="1439" type="line"/>
      <point x="1182" y="1364" type="line"/>
      <point x="1074" y="1428"/>
      <point x="957" y="1467"/>
      <point x="815" y="1467" type="curve" smooth="yes"/>
      <point x="391" y="1467"/>
      <point x="65" y="1151"/>
      <point x="67" y="716" type="curve"/>
      <point x="67" y="298"/>
      <point x="404" y="-17"/>
    </contour>
    <contour>
      <point x="805" y="227" type="curve"/>
      <point x="534" y="226"/>
      <point x="377" y="467"/>
      <point x="377" y="709" type="curve"/>
      <point x="375" y="954"/>
      <point x="517" y="1223"/>
      <point x="808" y="1223" type="curve" smooth="yes"/>
      <point x="986" y="1223"/>
      <point x="1107" y="1165"/>
      <point x="1182" y="1083" type="curve"/>
      <point x="1182" y="361" type="line"/>
      <point x="1100" y="277"/>
      <point x="987" y="227"/>
    </contour>
    <contour>
      <point x="1153" y="1455" type="move" name="top"/>
    </contour>
  </outline>
</glyph>
<glyph name="florin" format="1">
  <advance width="1106"/>
  <unicode hex="0192"/>
  <outline>
    <contour>
      <point x="183" y="-322" type="curve" smooth="yes"/>
      <point x="491" y="-322"/>
      <point x="548" y="-60"/>
      <point x="588" y="126" type="curve"/>
      <point x="715" y="725" type="line"/>
      <point x="938" y="725" type="line"/>
      <point x="954" y="936" type="line"/>
      <point x="755" y="936" type="line"/>
      <point x="783" y="1076" type="line"/>
      <point x="801" y="1159"/>
      <point x="827" y="1197"/>
      <point x="921" y="1197" type="curve" smooth="yes"/>
      <point x="959" y="1197"/>
      <point x="1075" y="1154"/>
      <point x="1066" y="1158" type="curve"/>
      <point x="1080" y="1388" type="line"/>
      <point x="1091" y="1385"/>
      <point x="955" y="1415"/>
      <point x="897" y="1415" type="curve" smooth="yes"/>
      <point x="638" y="1415"/>
      <point x="542" y="1241"/>
      <point x="513" y="1044" type="curve"/>
      <point x="496" y="936" type="line"/>
      <point x="315" y="936" type="line"/>
      <point x="298" y="728" type="line"/>
      <point x="455" y="728" type="line"/>
      <point x="406" y="497"/>
      <point x="365" y="265"/>
      <point x="304" y="49" type="curve"/>
      <point x="280" y="-34"/>
      <point x="253" y="-110"/>
      <point x="169" y="-110" type="curve" smooth="yes"/>
      <point x="150" y="-110"/>
      <point x="51" y="-77"/>
      <point x="58" y="-80" type="curve"/>
      <point x="37" y="-297" type="line"/>
      <point x="28" y="-294"/>
      <point x="148" y="-322"/>
    </contour>
  </outline>
</glyph>
<glyph name="circumflex" format="1">
  <advance width="758"/>
  <unicode hex="02C6"/>
  <outline>
    <contour>
      <point x="6" y="1104" type="line"/>
      <point x="217" y="1104" type="line"/>
      <point x="396" y="1287" type="line"/>
      <point x="579" y="1104" type="line"/>
      <point x="796" y="1104" type="line"/>
      <point x="503" y="1484" type="line"/>
      <point x="298" y="1484" type="line"/>
    </contour>
    <contour>
      <point x="401" y="1098" type="move" name="_top"/>
    </contour>
  </outline>
</glyph>
<glyph name="breve" format="1">
  <advance width="680"/>
  <unicode hex="02D8"/>
  <outline>
    <contour>
      <point x="335" y="1183" type="curve" smooth="yes"/>
      <point x="532" y="1183"/>
      <point x="651" y="1258"/>
      <point x="651" y="1430" type="curve"/>
      <point x="451" y="1430" type="line"/>
      <point x="451" y="1381"/>
      <point x="430" y="1364"/>
      <point x="335" y="1364" type="curve" smooth="yes"/>
      <point x="239" y="1364"/>
      <point x="218" y="1381"/>
      <point x="218" y="1430" type="curve"/>
      <point x="17" y="1430" type="line"/>
      <point x="17" y="1259"/>
      <point x="137" y="1183"/>
    </contour>
    <contour>
      <point x="334" y="1098" type="move" name="_top"/>
    </contour>
  </outline>
</glyph>
<glyph name="dotaccent" format="1">
  <advance width="625"/>
  <unicode hex="02D9"/>
  <outline>
    <contour>
      <point x="181" y="1216" type="line"/>
      <point x="404" y="1216" type="line"/>
      <point x="404" y="1445" type="line"/>
      <point x="181" y="1445" type="line"/>
    </contour>
    <contour>
      <point x="292.5" y="1098" type="move" name="_top"/>
    </contour>
  </outline>
</glyph>
<glyph name="ogonek" format="1">
  <advance width="568"/>
  <unicode hex="02DB"/>
  <outline>
    <contour>
      <point x="327" y="-374" type="curve" smooth="yes"/>
      <point x="398" y="-374"/>
      <point x="470" y="-362"/>
      <point x="543" y="-333" type="curve"/>
      <point x="543" y="-178" type="line"/>
      <point x="556" y="-172"/>
      <point x="464" y="-218"/>
      <point x="397" y="-218" type="curve" smooth="yes"/>
      <point x="339" y="-218"/>
      <point x="319" y="-167"/>
      <point x="319" y="-133" type="curve" smooth="yes"/>
      <point x="319" y="-72"/>
      <point x="333" y="-2"/>
      <point x="406" y="53" type="curve"/>
      <point x="302" y="53" type="line"/>
      <point x="232" y="14"/>
      <point x="112" y="-62"/>
      <point x="112" y="-204" type="curve" smooth="yes"/>
      <point x="112" y="-325"/>
      <point x="211" y="-374"/>
    </contour>
    <contour>
      <point x="544.24" y="10" type="move" name="_ogonek"/>
    </contour>
  </outline>
</glyph>
<glyph name="hungarumlaut" format="1">
  <advance width="1092"/>
  <unicode hex="02DD"/>
  <outline>
    <contour>
      <point x="164" y="1085" type="line"/>
      <point x="322" y="1085" type="line"/>
      <point x="717" y="1464" type="line"/>
      <point x="442" y="1464" type="line"/>
    </contour>
    <contour>
      <point x="527" y="1085" type="line"/>
      <point x="683" y="1085" type="line"/>
      <point x="1079" y="1464" type="line"/>
      <point x="804" y="1464" type="line"/>
    </contour>
    <contour>
      <point x="621.5" y="1098" type="move" name="_top"/>
    </contour>
  </outline>
</glyph>
<glyph name="pi" format="1">
  <advance width="1397"/>
  <unicode hex="03C0"/>
  <outline>
    <contour>
      <point x="1150" y="-7" type="curve" smooth="yes"/>
      <point x="1203" y="-7"/>
      <point x="1247" y="-1"/>
      <point x="1292" y="7" type="curve"/>
      <point x="1292" y="7"/>
      <point x="1311" y="166"/>
      <point x="1314" y="246" type="curve"/>
      <point x="1280" y="234"/>
      <point x="1235" y="217"/>
      <point x="1192" y="217" type="curve" smooth="yes"/>
      <point x="1144" y="217"/>
      <point x="1133" y="234"/>
      <point x="1133" y="327" type="curve" smooth="yes"/>
      <point x="1133" y="894" type="line"/>
      <point x="1337" y="894" type="line"/>
      <point x="1337" y="1099" type="line"/>
      <point x="396" y="1099" type="line" smooth="yes"/>
      <point x="212" y="1099"/>
      <point x="100" y="1093"/>
      <point x="-10" y="1019" type="curve"/>
      <point x="22" y="822" type="line"/>
      <point x="105" y="867"/>
      <point x="169" y="898"/>
      <point x="295" y="906" type="curve"/>
      <point x="297" y="984"/>
      <point x="244" y="235"/>
      <point x="126" y="1" type="curve"/>
      <point x="384" y="1" type="line"/>
      <point x="515" y="248"/>
      <point x="550" y="607"/>
      <point x="563" y="897" type="curve"/>
      <point x="885" y="897" type="line"/>
      <point x="881" y="319" type="line" smooth="yes"/>
      <point x="881" y="155"/>
      <point x="923" y="-7"/>
    </contour>
  </outline>
</glyph>
<glyph name="emdash" format="1">
  <advance width="1967"/>
  <unicode hex="2014"/>
  <outline>
    <contour>
      <point x="-44" y="417" type="line"/>
      <point x="1996" y="417" type="line"/>
      <point x="1996" y="626" type="line"/>
      <point x="-44" y="626" type="line"/>
    </contour>
  </outline>
</glyph>
<glyph name="quoteleft" format="1">
  <advance width="398"/>
  <unicode hex="2018"/>
  <outline>
    <contour>
      <point x="12" y="1578" type="line"/>
      <point x="179" y="953" type="line"/>
      <point x="387" y="835" type="line"/>
      <point x="274" y="1460" type="line"/>
    </contour>
  </outline>
</glyph>
<glyph name="quotesinglbase" format="1">
  <advance width="593"/>
  <unicode hex="201A"/>
  <outline>
    <contour>
      <point x="110" y="-296" type="line"/>
      <point x="311" y="-296" type="line"/>
      <point x="487" y="210" type="line"/>
      <point x="228" y="210" type="line"/>
    </contour>
  </outline>
</glyph>
<glyph name="quotedblright" format="1">
  <advance width="1058"/>
  <unicode hex="201D"/>
  <outline>
    <contour>
      <point x="204" y="953" type="line"/>
      <point x="410" y="953" type="line"/>
      <point x="566" y="1460" type="line"/>
      <point x="322" y="1460" type="line"/>
    </contour>
    <contour>
      <point x="514" y="953" type="line"/>
      <point x="701" y="953" type="line"/>
      <point x="875" y="1460" type="line"/>
      <point x="619" y="1460" type="line"/>
    </contour>
  </outline>
</glyph>
<glyph name="dagger" format="1">
  <advance width="1047"/>
  <unicode hex="2020"/>
  <outline>
    <contour>
      <point x="394" y="111" type="line"/>
      <point x="620" y="111" type="line"/>
      <point x="620" y="918" type="line"/>
      <point x="989" y="918" type="line"/>
      <point x="989" y="1133" type="line"/>
      <point x="638" y="1133" type="line"/>
      <point x="638" y="1436" type="line"/>
      <point x="394" y="1436" type="line"/>
      <point x="394" y="1133" type="line"/>
      <point x="65" y="1133" type="line"/>
      <point x="65" y="918" type="line"/>
      <point x="394" y="918" type="line"/>
    </contour>
  </outline>
</glyph>
<glyph name="bullet" format="1">
  <advance width="1081"/>
  <unicode hex="2022"/>
  <outline>
    <contour>
      <point x="540" y="315" type="curve" smooth="yes"/>
      <point x="776" y="315"/>
      <point x="939" y="460"/>
      <point x="939" y="663" type="curve" smooth="yes"/>
      <point x="939" y="863"/>
      <point x="780" y="1004"/>
      <point x="547" y="1004" type="curve" smooth="yes"/>
      <point x="312" y="1004"/>
      <point x="147" y="856"/>
      <point x="147" y="656" type="curve" smooth="yes"/>
      <point x="147" y="456"/>
      <point x="307" y="315"/>
    </contour>
  </outline>
</glyph>
<glyph name="fraction" format="1">
  <advance width="1208"/>
  <unicode hex="2044"/>
  <outline>
    <contour>
      <point x="28" y="0" type="line"/>
      <point x="271" y="0" type="line"/>
      <point x="1185" y="1421" type="line"/>
      <point x="944" y="1421" type="line"/>
    </contour>
  </outline>
</glyph>
<glyph name="Euro" format="1">
  <advance width="1210"/>
  <unicode hex="20AC"/>
  <outline>
    <contour>
      <point x="767" y="-18" type="curve" smooth="yes"/>
      <point x="923" y="-18"/>
      <point x="1032" y="30"/>
      <point x="1130" y="97" type="curve"/>
      <point x="1131" y="327" type="line"/>
      <point x="1028" y="242"/>
      <point x="910" y="196"/>
      <point x="803" y="196" type="curve" smooth="yes"/>
      <point x="658" y="196"/>
      <point x="510" y="270"/>
      <point x="464" y="471" type="curve"/>
      <point x="977" y="471" type="line"/>
      <point x="1006" y="656" type="line"/>
      <point x="437" y="656" type="line"/>
      <point x="437" y="655"/>
      <point x="440" y="801"/>
      <point x="438" y="789" type="curve"/>
      <point x="1011" y="789" type="line"/>
      <point x="1043" y="958" type="line"/>
      <point x="469" y="958" type="line"/>
      <point x="484" y="1142"/>
      <point x="653" y="1255"/>
      <point x="801" y="1255" type="curve" smooth="yes"/>
      <point x="901" y="1255"/>
      <point x="1009" y="1206"/>
      <point x="1082" y="1088" type="curve"/>
      <point x="1159" y="1293" type="line"/>
      <point x="1071" y="1389"/>
      <point x="946" y="1442"/>
      <point x="802" y="1442" type="curve" smooth="yes"/>
      <point x="458" y="1442"/>
      <point x="278" y="1212"/>
      <point x="215" y="957" type="curve"/>
      <point x="93" y="957" type="line"/>
      <point x="60" y="788" type="line"/>
      <point x="188" y="788" type="line"/>
      <point x="189" y="797"/>
      <point x="187" y="720"/>
      <point x="187" y="730" type="curve" smooth="yes"/>
      <point x="187" y="734"/>
      <point x="185" y="652"/>
      <point x="185" y="656" type="curve"/>
      <point x="92" y="656" type="line"/>
      <point x="64" y="471" type="line"/>
      <point x="211" y="471" type="line"/>
      <point x="258" y="197"/>
      <point x="414" y="-18"/>
    </contour>
  </outline>
</glyph>
<glyph name="partialdiff" format="1">
  <advance width="1152"/>
  <unicode hex="2202"/>
  <outline>
    <contour>
      <point x="491" y="-23" type="curve" smooth="yes"/>
      <point x="913" y="-23"/>
      <point x="1087" y="438"/>
      <point x="1087" y="838" type="curve" smooth="yes"/>
      <point x="1087" y="1159"/>
      <point x="991" y="1516"/>
      <point x="587" y="1516" type="curve" smooth="yes"/>
      <point x="444" y="1516"/>
      <point x="352" y="1459"/>
      <point x="263" y="1408" type="curve"/>
      <point x="280" y="1185" type="line"/>
      <point x="351" y="1237"/>
      <point x="438" y="1310"/>
      <point x="563" y="1310" type="curve" smooth="yes"/>
      <point x="766" y="1310"/>
      <point x="831" y="1134"/>
      <point x="838" y="938" type="curve" smooth="yes"/>
      <point x="838" y="945"/>
      <point x="840" y="923"/>
      <point x="840" y="927" type="curve"/>
      <point x="831" y="923"/>
      <point x="721" y="1027"/>
      <point x="579" y="1027" type="curve" smooth="yes"/>
      <point x="255" y="1027"/>
      <point x="68" y="736"/>
      <point x="68" y="436" type="curve" smooth="yes"/>
      <point x="68" y="176"/>
      <point x="215" y="-23"/>
    </contour>
    <contour>
      <point x="499" y="184" type="curve" smooth="yes"/>
      <point x="364" y="184"/>
      <point x="315" y="294"/>
      <point x="315" y="434" type="curve" smooth="yes"/>
      <point x="315" y="629"/>
      <point x="412" y="821"/>
      <point x="602" y="821" type="curve" smooth="yes"/>
      <point x="721" y="821"/>
      <point x="787" y="745"/>
      <point x="820" y="653" type="curve"/>
      <point x="797" y="472"/>
      <point x="721" y="184"/>
    </contour>
  </outline>
</glyph>
<glyph name="summation" format="1">
  <advance width="1257"/>
  <unicode hex="2211"/>
  <outline>
    <contour>
      <point x="45" y="-322" type="line"/>
      <point x="1238" y="-322" type="line"/>
      <point x="1238" y="-103" type="line"/>
      <point x="395" y="-103" type="line"/>
      <point x="927" y="555" type="line"/>
      <point x="425" y="1194" type="line"/>
      <point x="1193" y="1194" type="line"/>
      <point x="1193" y="1408" type="line"/>
      <point x="65" y="1408" type="line"/>
      <point x="65" y="1269" type="line"/>
      <point x="651" y="547" type="line"/>
      <point x="45" y="-188" type="line"/>
    </contour>
  </outline>
</glyph>
<glyph name="radical" format="1">
  <advance width="1336"/>
  <unicode hex="221A"/>
  <outline>
    <contour>
      <point x="607" y="-149" type="line"/>
      <point x="783" y="-149" type="line"/>
      <point x="1258" y="1578" type="line"/>
      <point x="1043" y="1578" type="line"/>
      <point x="925" y="1131"/>
      <point x="646" y="55"/>
      <point x="679" y="194" type="curve"/>
      <point x="665" y="240" type="line"/>
      <point x="442" y="859" type="line"/>
      <point x="82" y="797" type="line"/>
      <point x="114" y="615" type="line"/>
      <point x="295" y="642" type="line"/>
    </contour>
  </outline>
</glyph>
<glyph name="infinity" format="1">
  <advance width="1617"/>
  <unicode hex="221E"/>
  <outline>
    <contour>
      <point x="454" y="232" type="curve" smooth="yes"/>
      <point x="639" y="232"/>
      <point x="737" y="361"/>
      <point x="810" y="463" type="curve"/>
      <point x="884" y="360"/>
      <point x="982" y="232"/>
      <point x="1166" y="232" type="curve" smooth="yes"/>
      <point x="1382" y="232"/>
      <point x="1539" y="398"/>
      <point x="1539" y="612" type="curve" smooth="yes"/>
      <point x="1539" y="834"/>
      <point x="1383" y="982"/>
      <point x="1166" y="982" type="curve" smooth="yes"/>
      <point x="980" y="982"/>
      <point x="884" y="856"/>
      <point x="810" y="753" type="curve"/>
      <point x="746" y="843"/>
      <point x="648" y="981"/>
      <point x="487" y="981" type="curve" smooth="yes"/>
      <point x="230" y="981"/>
      <point x="78" y="837"/>
      <point x="79" y="629" type="curve" smooth="yes"/>
      <point x="79" y="408"/>
      <point x="234" y="232"/>
    </contour>
    <contour>
      <point x="1170" y="424" type="curve" smooth="yes"/>
      <point x="1039" y="424"/>
      <point x="973" y="530"/>
      <point x="916" y="609" type="curve"/>
      <point x="970" y="690"/>
      <point x="1045" y="796"/>
      <point x="1167" y="796" type="curve" smooth="yes"/>
      <point x="1267" y="796"/>
      <point x="1321" y="735"/>
      <point x="1329" y="635" type="curve" smooth="yes"/>
      <point x="1329" y="574"/>
      <point x="1324" y="424"/>
    </contour>
    <contour>
      <point x="451" y="425" type="curve" smooth="yes"/>
      <point x="345" y="425"/>
      <point x="279" y="499"/>
      <point x="279" y="609" type="curve" smooth="yes"/>
      <point x="279" y="721"/>
      <point x="334" y="796"/>
      <point x="443" y="796" type="curve" smooth="yes"/>
      <point x="575" y="796"/>
      <point x="644" y="694"/>
      <point x="702" y="606" type="curve"/>
      <point x="647" y="528"/>
      <point x="577" y="425"/>
    </contour>
  </outline>
</glyph>
<glyph name="integral" format="1">
  <advance width="802"/>
  <unicode hex="222B"/>
  <outline>
    <contour>
      <point x="310" y="-392" type="curve" smooth="yes"/>
      <point x="600" y="-392"/>
      <point x="699" y="-210"/>
      <point x="699" y="3" type="curve" smooth="yes"/>
      <point x="699" y="1237" type="line" smooth="yes"/>
      <point x="699" y="1357"/>
      <point x="716" y="1406"/>
      <point x="826" y="1406" type="curve" smooth="yes"/>
      <point x="860" y="1406"/>
      <point x="983" y="1369"/>
      <point x="977" y="1372" type="curve"/>
      <point x="972" y="1586" type="line"/>
      <point x="983" y="1583"/>
      <point x="862" y="1612"/>
      <point x="803" y="1612" type="curve" smooth="yes"/>
      <point x="512" y="1612"/>
      <point x="411" y="1432"/>
      <point x="411" y="1220" type="curve" smooth="yes"/>
      <point x="411" y="-15" type="line" smooth="yes"/>
      <point x="411" y="-135"/>
      <point x="396" y="-184"/>
      <point x="287" y="-184" type="curve" smooth="yes"/>
      <point x="253" y="-184"/>
      <point x="129" y="-146"/>
      <point x="135" y="-149" type="curve"/>
      <point x="139" y="-360" type="line"/>
      <point x="128" y="-357"/>
      <point x="252" y="-392"/>
    </contour>
  </outline>
</glyph>
<glyph name="approxequal" format="1">
  <advance width="1310"/>
  <unicode hex="2248"/>
  <outline>
    <contour>
      <point x="213" y="-18" type="line"/>
      <point x="255" y="48"/>
      <point x="319" y="119"/>
      <point x="412" y="119" type="curve" smooth="yes"/>
      <point x="495" y="119"/>
      <point x="547" y="99"/>
      <point x="613" y="71" type="curve"/>
      <point x="709" y="32"/>
      <point x="780" y="2"/>
      <point x="886" y="2" type="curve" smooth="yes"/>
      <point x="1028" y="2"/>
      <point x="1181" y="103"/>
      <point x="1239" y="174" type="curve"/>
      <point x="1169" y="352" type="line"/>
      <point x="1059" y="260"/>
      <point x="990" y="235"/>
      <point x="912" y="235" type="curve" smooth="yes"/>
      <point x="850" y="235"/>
      <point x="786" y="250"/>
      <point x="697" y="286" type="curve" smooth="yes"/>
      <point x="613" y="319"/>
      <point x="513" y="345"/>
      <point x="424" y="345" type="curve" smooth="yes"/>
      <point x="270" y="345"/>
      <point x="191" y="260"/>
      <point x="132" y="173" type="curve"/>
    </contour>
    <contour>
      <point x="213" y="404" type="line"/>
      <point x="256" y="470"/>
      <point x="319" y="541"/>
      <point x="413" y="541" type="curve" smooth="yes"/>
      <point x="495" y="541"/>
      <point x="548" y="521"/>
      <point x="613" y="493" type="curve" smooth="yes"/>
      <point x="710" y="454"/>
      <point x="781" y="424"/>
      <point x="887" y="424" type="curve" smooth="yes"/>
      <point x="1030" y="424"/>
      <point x="1182" y="526"/>
      <point x="1240" y="597" type="curve"/>
      <point x="1170" y="774" type="line"/>
      <point x="1059" y="683"/>
      <point x="990" y="658"/>
      <point x="912" y="658" type="curve" smooth="yes"/>
      <point x="849" y="658"/>
      <point x="782" y="677"/>
      <point x="697" y="711" type="curve" smooth="yes"/>
      <point x="617" y="740"/>
      <point x="514" y="768"/>
      <point x="425" y="768" type="curve" smooth="yes"/>
      <point x="270" y="768"/>
      <point x="192" y="683"/>
      <point x="132" y="596" type="curve"/>
    </contour>
  </outline>
</glyph>
<glyph name="notequal" format="1">
  <advance width="1395"/>
  <unicode hex="2260"/>
  <outline>
    <contour>
      <point x="520" y="42" type="line"/>
      <point x="655" y="286" type="line"/>
      <point x="1244" y="286" type="line"/>
      <point x="1227" y="479" type="line"/>
      <point x="749" y="479" type="line"/>
      <point x="851" y="682" type="line"/>
      <point x="1244" y="682" type="line"/>
      <point x="1227" y="875" type="line"/>
      <point x="944" y="875" type="line"/>
      <point x="1064" y="1090" type="line"/>
      <point x="1062" y="1090"/>
      <point x="867" y="1116"/>
      <point x="867" y="1116" type="curve"/>
      <point x="732" y="876" type="line"/>
      <point x="162" y="876" type="line"/>
      <point x="176" y="683" type="line"/>
      <point x="642" y="683" type="line"/>
      <point x="541" y="480" type="line"/>
      <point x="164" y="480" type="line"/>
      <point x="176" y="287" type="line"/>
      <point x="447" y="287" type="line"/>
      <point x="323" y="68" type="line"/>
    </contour>
  </outline>
</glyph>
<glyph name="lessequal" format="1">
  <advance width="1252"/>
  <unicode hex="2264"/>
  <outline>
    <contour>
      <point x="1110" y="220" type="line"/>
      <point x="1110" y="436" type="line"/>
      <point x="451" y="730" type="line"/>
      <point x="1110" y="1031" type="line"/>
      <point x="1110" y="1247" type="line"/>
      <point x="155" y="797" type="line"/>
      <point x="155" y="665" type="line"/>
    </contour>
    <contour>
      <point x="162" y="-2" type="line"/>
      <point x="1104" y="-2" type="line"/>
      <point x="1104" y="169" type="line"/>
      <point x="162" y="167" type="line"/>
    </contour>
  </outline>
</glyph>
<glyph name="uniFB01" format="1">
  <advance width="1247"/>
  <unicode hex="FB01"/>
  <outline>
    <contour>
      <point x="185" y="0" type="line"/>
      <point x="497" y="0" type="line"/>
      <point x="497" y="916" type="line"/>
      <point x="823" y="916" type="line"/>
      <point x="823" y="0" type="line"/>
      <point x="1135" y="0" type="line"/>
      <point x="1135" y="1098" type="line"/>
      <point x="497" y="1098" type="line"/>
      <point x="497" y="1186" type="line"/>
      <point x="496" y="1278"/>
      <point x="516" y="1318"/>
      <point x="636" y="1318" type="curve" smooth="yes"/>
      <point x="690" y="1318" type="line"/>
      <point x="667" y="1549" type="line"/>
      <point x="603" y="1549" type="line" smooth="yes"/>
      <point x="203" y="1549"/>
      <point x="183" y="1375"/>
      <point x="185" y="1127" type="curve"/>
      <point x="185" y="1098" type="line"/>
      <point x="4" y="1098" type="line"/>
      <point x="4" y="916" type="line"/>
      <point x="185" y="916" type="line"/>
    </contour>
    <contour>
      <point x="823" y="1233" type="line"/>
      <point x="1136" y="1233" type="line"/>
      <point x="1136" y="1474" type="line"/>
      <point x="823" y="1474" type="line"/>
    </contour>
  </outline>
</glyph>
